M48
; DRILL file KiCad 10.0.4 date 2026-09-01T20:45:53
; FORMAT={-:-/ absolute / metric / decimal}
; #@! TF.CreationDate,2026-09-01T20:45:53+03:00
; #@! TF.GenerationSoftware,Kicad,Pcbnew,10.0.4
; #@! TF.FileFunction,Plated,1,2,PTH
FMAT,2
METRIC
; #@! TA.AperFunction,Plated,PTH,ViaDrill
T1C0.300
; #@! TA.AperFunction,Plated,PTH,ComponentDrill
T2C0.500
; #@! TA.AperFunction,Plated,PTH,ComponentDrill
T3C0.800
; #@! TA.AperFunction,Plated,PTH,ComponentDrill
T4C1.000
%
G90
G05
T1
X97.75Y-114.45
X124.0Y-104.5
X138.25Y-41.75
X140.25Y-41.684
T3
X108.26Y-36.0
X123.5Y-36.0
T4
X83.4Y-106.25
X91.0Y-106.25
X97.44Y-111.5
X98.425Y-94.575
X99.98Y-111.5
X100.965Y-94.575
X102.52Y-111.5
X103.505Y-94.575
X105.06Y-111.5
X106.045Y-94.575
X107.565Y-46.315
X108.585Y-94.575
X110.105Y-46.315
X111.125Y-94.575
X112.645Y-46.315
X113.665Y-94.575
X115.185Y-46.315
X116.205Y-94.575
X117.725Y-46.315
X118.745Y-94.575
X119.92Y-107.0
X120.265Y-46.315
X121.285Y-94.575
X122.46Y-107.0
X122.805Y-46.315
X125.0Y-107.0
X125.345Y-46.315
X125.345Y-94.575
X127.885Y-94.575
X130.425Y-46.315
X130.425Y-94.575
X132.965Y-46.315
X132.965Y-94.575
X135.505Y-46.315
X135.505Y-94.575
X138.045Y-46.315
X138.045Y-94.575
X140.585Y-46.315
X140.585Y-94.575
X143.125Y-46.315
X143.125Y-94.575
T2
G00X135.01Y-33.46
M15
G01X135.01Y-32.86
M16
G05
G00X135.37Y-39.41
M15
G01X135.37Y-38.81
M16
G05
G00X143.63Y-39.41
M15
G01X143.63Y-38.81
M16
G05
G00X143.99Y-33.46
M15
G01X143.99Y-32.86
M16
G05
M30
