%TF.GenerationSoftware,KiCad,Pcbnew,10.0.4*%
%TF.CreationDate,2026-09-01T20:45:45+03:00*%
%TF.ProjectId,ultrasonic-radar-detector,756c7472-6173-46f6-9e69-632d72616461,rev?*%
%TF.SameCoordinates,Original*%
%TF.FileFunction,Copper,L2,Bot*%
%TF.FilePolarity,Positive*%
%FSLAX46Y46*%
G04 Gerber Fmt 4.6, Leading zero omitted, Abs format (unit mm)*
G04 Created by KiCad (PCBNEW 10.0.4) date 2026-09-01 20:45:45*
%MOMM*%
%LPD*%
G01*
G04 APERTURE LIST*
%TA.AperFunction,ComponentPad*%
%ADD10R,1.700000X1.700000*%
%TD*%
%TA.AperFunction,ComponentPad*%
%ADD11C,1.700000*%
%TD*%
%TA.AperFunction,ComponentPad*%
%ADD12R,2.000000X2.000000*%
%TD*%
%TA.AperFunction,ComponentPad*%
%ADD13C,2.000000*%
%TD*%
%TA.AperFunction,ComponentPad*%
%ADD14C,1.600000*%
%TD*%
%TA.AperFunction,ComponentPad*%
%ADD15R,1.600000X1.600000*%
%TD*%
%TA.AperFunction,ComponentPad*%
%ADD16O,1.600000X1.600000*%
%TD*%
%TA.AperFunction,ComponentPad*%
%ADD17O,0.800000X1.400000*%
%TD*%
%TA.AperFunction,ViaPad*%
%ADD18C,0.600000*%
%TD*%
%TA.AperFunction,Conductor*%
%ADD19C,0.200000*%
%TD*%
%TA.AperFunction,Conductor*%
%ADD20C,1.000000*%
%TD*%
G04 APERTURE END LIST*
D10*
%TO.P,U1,1,VCC_1*%
%TO.N,5V*%
X105060000Y-111500000D03*
D11*
%TO.P,U1,2,TRIG_2*%
%TO.N,D9*%
X102520000Y-111500000D03*
%TO.P,U1,3,ECHO_3*%
%TO.N,D10*%
X99980000Y-111500000D03*
%TO.P,U1,4,GND_4*%
%TO.N,GND*%
X97440000Y-111500000D03*
%TD*%
D10*
%TO.P,J1,1,PWM_1*%
%TO.N,D11*%
X125000000Y-107000000D03*
D11*
%TO.P,J1,2,+_2*%
%TO.N,5V*%
X122460000Y-107000000D03*
%TO.P,J1,3,-_3*%
%TO.N,GND*%
X119920000Y-107000000D03*
%TD*%
D12*
%TO.P,Buzzer,1,+_1*%
%TO.N,D12*%
X83400000Y-106250000D03*
D13*
%TO.P,Buzzer,2,-_2*%
%TO.N,GND*%
X91000000Y-106250000D03*
%TD*%
D14*
%TO.P,5.1k\u03A9,1*%
%TO.N,Net-(P1-CC)*%
X123500000Y-36000000D03*
%TO.P,5.1k\u03A9,2*%
%TO.N,GND*%
X108260000Y-36000000D03*
%TD*%
D15*
%TO.P,A1,1,NC_1*%
%TO.N,unconnected-(A1-NC-Pad1)*%
X107565000Y-46315000D03*
D16*
%TO.P,A1,2,IOREF_2*%
%TO.N,unconnected-(A1-IOREF-Pad2)*%
X110105000Y-46315000D03*
%TO.P,A1,3,~{RESET}_3*%
%TO.N,unconnected-(A1-~{RESET}-Pad3)*%
X112645000Y-46315000D03*
%TO.P,A1,4,3V3_4*%
%TO.N,unconnected-(A1-3V3-Pad4)*%
X115185000Y-46315000D03*
%TO.P,A1,5,+5V_5*%
%TO.N,5V*%
X117725000Y-46315000D03*
%TO.P,A1,6,GND_6*%
%TO.N,GND*%
X120265000Y-46315000D03*
%TO.P,A1,7,GND_7*%
X122805000Y-46315000D03*
%TO.P,A1,8,VIN_8*%
%TO.N,VIN*%
X125345000Y-46315000D03*
%TO.P,A1,9,A0_9*%
%TO.N,unconnected-(A1-A0-Pad9)*%
X130425000Y-46315000D03*
%TO.P,A1,10,A1_10*%
%TO.N,unconnected-(A1-A1-Pad10)*%
X132965000Y-46315000D03*
%TO.P,A1,11,A2_11*%
%TO.N,unconnected-(A1-A2-Pad11)*%
X135505000Y-46315000D03*
%TO.P,A1,12,A3_12*%
%TO.N,unconnected-(A1-A3-Pad12)*%
X138045000Y-46315000D03*
%TO.P,A1,13,SDA/A4_13*%
%TO.N,unconnected-(A1-SDA{slash}A4-Pad13)*%
X140585000Y-46315000D03*
%TO.P,A1,14,SCL/A5_14*%
%TO.N,unconnected-(A1-SCL{slash}A5-Pad14)*%
X143125000Y-46315000D03*
%TO.P,A1,15,D0/RX_15*%
%TO.N,unconnected-(A1-D0{slash}RX-Pad15)*%
X143125000Y-94575000D03*
%TO.P,A1,16,D1/TX_16*%
%TO.N,unconnected-(A1-D1{slash}TX-Pad16)*%
X140585000Y-94575000D03*
%TO.P,A1,17,D2_17*%
%TO.N,unconnected-(A1-D2-Pad17)*%
X138045000Y-94575000D03*
%TO.P,A1,18,D3_18*%
%TO.N,unconnected-(A1-D3-Pad18)*%
X135505000Y-94575000D03*
%TO.P,A1,19,D4_19*%
%TO.N,unconnected-(A1-D4-Pad19)*%
X132965000Y-94575000D03*
%TO.P,A1,20,D5_20*%
%TO.N,unconnected-(A1-D5-Pad20)*%
X130425000Y-94575000D03*
%TO.P,A1,21,D6_21*%
%TO.N,unconnected-(A1-D6-Pad21)*%
X127885000Y-94575000D03*
%TO.P,A1,22,D7_22*%
%TO.N,unconnected-(A1-D7-Pad22)*%
X125345000Y-94575000D03*
%TO.P,A1,23,D8_23*%
%TO.N,unconnected-(A1-D8-Pad23)*%
X121285000Y-94575000D03*
%TO.P,A1,24,D9_24*%
%TO.N,D9*%
X118745000Y-94575000D03*
%TO.P,A1,25,D10_25*%
%TO.N,D10*%
X116205000Y-94575000D03*
%TO.P,A1,26,D11_26*%
%TO.N,D11*%
X113665000Y-94575000D03*
%TO.P,A1,27,D12_27*%
%TO.N,D12*%
X111125000Y-94575000D03*
%TO.P,A1,28,D13_28*%
%TO.N,unconnected-(A1-D13-Pad28)*%
X108585000Y-94575000D03*
%TO.P,A1,29,GND_29*%
%TO.N,GND*%
X106045000Y-94575000D03*
%TO.P,A1,30,AREF_30*%
%TO.N,unconnected-(A1-AREF-Pad30)*%
X103505000Y-94575000D03*
%TO.P,A1,31,SDA/A4_31*%
%TO.N,unconnected-(A1-SDA{slash}A4-Pad31)*%
X100965000Y-94575000D03*
%TO.P,A1,32,SCL/A5_32*%
%TO.N,unconnected-(A1-SCL{slash}A5-Pad32)*%
X98425000Y-94575000D03*
%TD*%
D17*
%TO.P,P1,SH,SHIELD_SH*%
%TO.N,GND*%
X143990000Y-33160000D03*
X143630000Y-39110000D03*
X135370000Y-39110000D03*
X135010000Y-33160000D03*
%TD*%
D18*
%TO.N,GND*%
X97750000Y-114450000D03*
X124000000Y-104500000D03*
%TO.N,VIN*%
X138250000Y-41750000D03*
%TO.N,Net-(P1-CC)*%
X140250000Y-41684352D03*
%TD*%
%TO.N,D12*%
D19*
X81250000Y-104100000D02*
X83400000Y-106250000D01*
X81250000Y-100750000D02*
X81250000Y-104100000D01*
X82250000Y-99750000D02*
X81250000Y-100750000D01*
X103750000Y-96750000D02*
X100750000Y-99750000D01*
X100750000Y-99750000D02*
X82250000Y-99750000D01*
X108950000Y-96750000D02*
X103750000Y-96750000D01*
X111125000Y-94575000D02*
X108950000Y-96750000D01*
%TO.N,D11*%
X104240000Y-104000000D02*
X113665000Y-94575000D01*
X94750000Y-109750000D02*
X100500000Y-104000000D01*
X94750000Y-113750000D02*
X94750000Y-109750000D01*
X95000000Y-113500000D02*
X94750000Y-113750000D01*
X118500000Y-113500000D02*
X95000000Y-113500000D01*
X125000000Y-107000000D02*
X118500000Y-113500000D01*
X100500000Y-104000000D02*
X104240000Y-104000000D01*
%TO.N,5V*%
D20*
X106000000Y-111500000D02*
X105060000Y-111500000D01*
X117750000Y-99750000D02*
X106000000Y-111500000D01*
%TO.N,D9*%
D19*
X118745000Y-95275000D02*
X118745000Y-94575000D01*
X102520000Y-111500000D02*
X118745000Y-95275000D01*
%TO.N,D10*%
X116205000Y-95275000D02*
X116205000Y-94575000D01*
X99980000Y-111500000D02*
X116205000Y-95275000D01*
%TO.N,VIN*%
X128660000Y-43000000D02*
X125345000Y-46315000D01*
X138250000Y-42500000D02*
X137750000Y-43000000D01*
X137750000Y-43000000D02*
X128660000Y-43000000D01*
X138250000Y-41750000D02*
X138250000Y-42500000D01*
%TO.N,5V*%
D20*
X101000000Y-40750000D02*
X112160000Y-40750000D01*
X121000000Y-99750000D02*
X148500000Y-99750000D01*
X151500000Y-96750000D02*
X151500000Y-31500000D01*
X147750000Y-27750000D02*
X104000000Y-27750000D01*
X148500000Y-99750000D02*
X151500000Y-96750000D01*
X121000000Y-99750000D02*
X122460000Y-101210000D01*
X122460000Y-101210000D02*
X122460000Y-107000000D01*
X151500000Y-31500000D02*
X147750000Y-27750000D01*
X101000000Y-30750000D02*
X101000000Y-40750000D01*
X112160000Y-40750000D02*
X117725000Y-46315000D01*
X104000000Y-27750000D02*
X101000000Y-30750000D01*
X117750000Y-99750000D02*
X121000000Y-99750000D01*
%TO.N,Net-(P1-CC)*%
D19*
X130000000Y-29500000D02*
X123500000Y-36000000D01*
X144500000Y-29500000D02*
X130000000Y-29500000D01*
X145250000Y-30250000D02*
X144500000Y-29500000D01*
X140250000Y-41684352D02*
X140815648Y-42250000D01*
X140815648Y-42250000D02*
X145250000Y-42250000D01*
X145250000Y-42250000D02*
X145250000Y-30250000D01*
%TD*%
%TA.AperFunction,Conductor*%
%TO.N,GND*%
G36*
X114947791Y-95098877D02*
G01*
X114955643Y-95097944D01*
X114980393Y-95109987D01*
X115006445Y-95118865D01*
X115012136Y-95125433D01*
X115018470Y-95128515D01*
X115040924Y-95155745D01*
X115043353Y-95159737D01*
X115092713Y-95256610D01*
X115151874Y-95338038D01*
X115154501Y-95342355D01*
X115162268Y-95371418D01*
X115172375Y-95399745D01*
X115171194Y-95404821D01*
X115172540Y-95409856D01*
X115163361Y-95438503D01*
X115156549Y-95467799D01*
X115152812Y-95471430D01*
X115151222Y-95476394D01*
X115136258Y-95494505D01*
X100464522Y-110166241D01*
X100403199Y-110199726D01*
X100338523Y-110196491D01*
X100296245Y-110182754D01*
X100156272Y-110160584D01*
X100086287Y-110149500D01*
X99873713Y-110149500D01*
X99825042Y-110157208D01*
X99663760Y-110182753D01*
X99461585Y-110248444D01*
X99272179Y-110344951D01*
X99100213Y-110469890D01*
X98949890Y-110620213D01*
X98824949Y-110792182D01*
X98820202Y-110801499D01*
X98772227Y-110852293D01*
X98704405Y-110869087D01*
X98638271Y-110846548D01*
X98599234Y-110801495D01*
X98594626Y-110792452D01*
X98555270Y-110738282D01*
X98555269Y-110738282D01*
X97922962Y-111370590D01*
X97905925Y-111307007D01*
X97840099Y-111192993D01*
X97747007Y-111099901D01*
X97632993Y-111034075D01*
X97569409Y-111017037D01*
X98201716Y-110384728D01*
X98147550Y-110345375D01*
X97958217Y-110248904D01*
X97756129Y-110183242D01*
X97546246Y-110150000D01*
X97333754Y-110150000D01*
X97123872Y-110183242D01*
X97123869Y-110183242D01*
X96921782Y-110248904D01*
X96732439Y-110345380D01*
X96678282Y-110384727D01*
X96678282Y-110384728D01*
X97310591Y-111017037D01*
X97247007Y-111034075D01*
X97132993Y-111099901D01*
X97039901Y-111192993D01*
X96974075Y-111307007D01*
X96957037Y-111370591D01*
X96324728Y-110738282D01*
X96324727Y-110738282D01*
X96285380Y-110792439D01*
X96188904Y-110981782D01*
X96123242Y-111183869D01*
X96123242Y-111183872D01*
X96090000Y-111393753D01*
X96090000Y-111606246D01*
X96123242Y-111816127D01*
X96123242Y-111816130D01*
X96188904Y-112018217D01*
X96285375Y-112207550D01*
X96324728Y-112261716D01*
X96957037Y-111629408D01*
X96974075Y-111692993D01*
X97039901Y-111807007D01*
X97132993Y-111900099D01*
X97247007Y-111965925D01*
X97310590Y-111982962D01*
X96678282Y-112615269D01*
X96678282Y-112615270D01*
X96732452Y-112654626D01*
X96732451Y-112654626D01*
X96752841Y-112665015D01*
X96803638Y-112712989D01*
X96820433Y-112780810D01*
X96797896Y-112846945D01*
X96743181Y-112890397D01*
X96696547Y-112899500D01*
X95474500Y-112899500D01*
X95407461Y-112879815D01*
X95361706Y-112827011D01*
X95350500Y-112775500D01*
X95350500Y-110050097D01*
X95370185Y-109983058D01*
X95386819Y-109962416D01*
X100712416Y-104636819D01*
X100773739Y-104603334D01*
X100800097Y-104600500D01*
X104153331Y-104600500D01*
X104153347Y-104600501D01*
X104160943Y-104600501D01*
X104319054Y-104600501D01*
X104319057Y-104600501D01*
X104471785Y-104559577D01*
X104521904Y-104530639D01*
X104608716Y-104480520D01*
X104720520Y-104368716D01*
X104720520Y-104368714D01*
X104730728Y-104358507D01*
X104730730Y-104358504D01*
X113220158Y-95869075D01*
X113281479Y-95835592D01*
X113346151Y-95838825D01*
X113360466Y-95843477D01*
X113360471Y-95843477D01*
X113360472Y-95843478D01*
X113388713Y-95847951D01*
X113562648Y-95875500D01*
X113562649Y-95875500D01*
X113767351Y-95875500D01*
X113767352Y-95875500D01*
X113969534Y-95843477D01*
X114164219Y-95780220D01*
X114346610Y-95687287D01*
X114439590Y-95619732D01*
X114512213Y-95566971D01*
X114512215Y-95566968D01*
X114512219Y-95566966D01*
X114656966Y-95422219D01*
X114656968Y-95422215D01*
X114656971Y-95422213D01*
X114777284Y-95256614D01*
X114777286Y-95256611D01*
X114777287Y-95256610D01*
X114824516Y-95163917D01*
X114829943Y-95158171D01*
X114832355Y-95150644D01*
X114853587Y-95133136D01*
X114872489Y-95113123D01*
X114880163Y-95111222D01*
X114886262Y-95106194D01*
X114913593Y-95102944D01*
X114940310Y-95096328D01*
X114947791Y-95098877D01*
G37*
%TD.AperFunction*%
%TA.AperFunction,Conductor*%
G36*
X98555270Y-112261717D02*
G01*
X98555270Y-112261716D01*
X98594622Y-112207555D01*
X98599232Y-112198507D01*
X98647205Y-112147709D01*
X98715025Y-112130912D01*
X98781161Y-112153447D01*
X98820204Y-112198504D01*
X98824949Y-112207817D01*
X98949890Y-112379786D01*
X99100213Y-112530109D01*
X99272182Y-112655050D01*
X99291739Y-112665015D01*
X99342536Y-112712989D01*
X99359331Y-112780810D01*
X99336794Y-112846945D01*
X99282079Y-112890397D01*
X99235445Y-112899500D01*
X98183453Y-112899500D01*
X98116414Y-112879815D01*
X98070659Y-112827011D01*
X98060715Y-112757853D01*
X98089740Y-112694297D01*
X98127159Y-112665015D01*
X98147552Y-112654624D01*
X98201716Y-112615270D01*
X98201717Y-112615270D01*
X97569408Y-111982962D01*
X97632993Y-111965925D01*
X97747007Y-111900099D01*
X97840099Y-111807007D01*
X97905925Y-111692993D01*
X97922962Y-111629408D01*
X98555270Y-112261717D01*
G37*
%TD.AperFunction*%
%TA.AperFunction,Conductor*%
G36*
X120601257Y-100770185D02*
G01*
X120621899Y-100786819D01*
X121423181Y-101588101D01*
X121456666Y-101649424D01*
X121459500Y-101675782D01*
X121459500Y-106039800D01*
X121439815Y-106106839D01*
X121430506Y-106119365D01*
X121304949Y-106292182D01*
X121300202Y-106301499D01*
X121252227Y-106352293D01*
X121184405Y-106369087D01*
X121118271Y-106346548D01*
X121079234Y-106301495D01*
X121074626Y-106292452D01*
X121035270Y-106238282D01*
X121035269Y-106238282D01*
X120402962Y-106870590D01*
X120385925Y-106807007D01*
X120320099Y-106692993D01*
X120227007Y-106599901D01*
X120112993Y-106534075D01*
X120049409Y-106517037D01*
X120681716Y-105884728D01*
X120627550Y-105845375D01*
X120438217Y-105748904D01*
X120236129Y-105683242D01*
X120026246Y-105650000D01*
X119813754Y-105650000D01*
X119603872Y-105683242D01*
X119603869Y-105683242D01*
X119401782Y-105748904D01*
X119212439Y-105845380D01*
X119158282Y-105884727D01*
X119158282Y-105884728D01*
X119790591Y-106517037D01*
X119727007Y-106534075D01*
X119612993Y-106599901D01*
X119519901Y-106692993D01*
X119454075Y-106807007D01*
X119437037Y-106870591D01*
X118804728Y-106238282D01*
X118804727Y-106238282D01*
X118765380Y-106292439D01*
X118668904Y-106481782D01*
X118603242Y-106683869D01*
X118603242Y-106683872D01*
X118570000Y-106893753D01*
X118570000Y-107106246D01*
X118603242Y-107316127D01*
X118603242Y-107316130D01*
X118668904Y-107518217D01*
X118765375Y-107707550D01*
X118804728Y-107761716D01*
X119437037Y-107129408D01*
X119454075Y-107192993D01*
X119519901Y-107307007D01*
X119612993Y-107400099D01*
X119727007Y-107465925D01*
X119790590Y-107482962D01*
X119158282Y-108115269D01*
X119158282Y-108115270D01*
X119212449Y-108154624D01*
X119401782Y-108251095D01*
X119603870Y-108316757D01*
X119813754Y-108350000D01*
X120026246Y-108350000D01*
X120236127Y-108316757D01*
X120236130Y-108316757D01*
X120438217Y-108251095D01*
X120627554Y-108154622D01*
X120681716Y-108115270D01*
X120681717Y-108115270D01*
X120049408Y-107482962D01*
X120112993Y-107465925D01*
X120227007Y-107400099D01*
X120320099Y-107307007D01*
X120385925Y-107192993D01*
X120402962Y-107129409D01*
X121035270Y-107761717D01*
X121035270Y-107761716D01*
X121074622Y-107707555D01*
X121079232Y-107698507D01*
X121127205Y-107647709D01*
X121195025Y-107630912D01*
X121261161Y-107653447D01*
X121300204Y-107698504D01*
X121304949Y-107707817D01*
X121429890Y-107879786D01*
X121580213Y-108030109D01*
X121752179Y-108155048D01*
X121752181Y-108155049D01*
X121752184Y-108155051D01*
X121941588Y-108251557D01*
X122143757Y-108317246D01*
X122353713Y-108350500D01*
X122353714Y-108350500D01*
X122500902Y-108350500D01*
X122567941Y-108370185D01*
X122613696Y-108422989D01*
X122623640Y-108492147D01*
X122594615Y-108555703D01*
X122588583Y-108562181D01*
X118287584Y-112863181D01*
X118226261Y-112896666D01*
X118199903Y-112899500D01*
X106371571Y-112899500D01*
X106304532Y-112879815D01*
X106258777Y-112827011D01*
X106248833Y-112757853D01*
X106272305Y-112701189D01*
X106353793Y-112592335D01*
X106353792Y-112592335D01*
X106353796Y-112592331D01*
X106403725Y-112458463D01*
X106445596Y-112402530D01*
X106472459Y-112387234D01*
X106473914Y-112386632D01*
X106637782Y-112277139D01*
X106777139Y-112137782D01*
X106777139Y-112137780D01*
X106787347Y-112127573D01*
X106787348Y-112127570D01*
X118128102Y-100786819D01*
X118189425Y-100753334D01*
X118215783Y-100750500D01*
X120534218Y-100750500D01*
X120601257Y-100770185D01*
G37*
%TD.AperFunction*%
%TA.AperFunction,Conductor*%
G36*
X122339075Y-46122007D02*
G01*
X122305000Y-46249174D01*
X122305000Y-46380826D01*
X122339075Y-46507993D01*
X122371988Y-46565000D01*
X120698012Y-46565000D01*
X120730925Y-46507993D01*
X120765000Y-46380826D01*
X120765000Y-46249174D01*
X120730925Y-46122007D01*
X120698012Y-46065000D01*
X122371988Y-46065000D01*
X122339075Y-46122007D01*
G37*
%TD.AperFunction*%
%TA.AperFunction,Conductor*%
G36*
X154442539Y-26520185D02*
G01*
X154488294Y-26572989D01*
X154499500Y-26624500D01*
X154499500Y-115125500D01*
X154479815Y-115192539D01*
X154427011Y-115238294D01*
X154375500Y-115249500D01*
X67624500Y-115249500D01*
X67557461Y-115229815D01*
X67511706Y-115177011D01*
X67500500Y-115125500D01*
X67500500Y-104179054D01*
X80649498Y-104179054D01*
X80649499Y-104179057D01*
X80690423Y-104331785D01*
X80705851Y-104358507D01*
X80719358Y-104381900D01*
X80719359Y-104381904D01*
X80719360Y-104381904D01*
X80769479Y-104468714D01*
X80769481Y-104468717D01*
X80888349Y-104587585D01*
X80888355Y-104587590D01*
X81863181Y-105562416D01*
X81896666Y-105623739D01*
X81899500Y-105650097D01*
X81899500Y-107297870D01*
X81899501Y-107297876D01*
X81905908Y-107357483D01*
X81956202Y-107492328D01*
X81956206Y-107492335D01*
X82042452Y-107607544D01*
X82042455Y-107607547D01*
X82157664Y-107693793D01*
X82157671Y-107693797D01*
X82292517Y-107744091D01*
X82292516Y-107744091D01*
X82299444Y-107744835D01*
X82352127Y-107750500D01*
X84447872Y-107750499D01*
X84507483Y-107744091D01*
X84642331Y-107693796D01*
X84757546Y-107607546D01*
X84843796Y-107492331D01*
X84894091Y-107357483D01*
X84900500Y-107297873D01*
X84900499Y-106131947D01*
X89500000Y-106131947D01*
X89500000Y-106368052D01*
X89536934Y-106601247D01*
X89609897Y-106825802D01*
X89717087Y-107036174D01*
X89777338Y-107119104D01*
X89777340Y-107119105D01*
X90517037Y-106379408D01*
X90534075Y-106442993D01*
X90599901Y-106557007D01*
X90692993Y-106650099D01*
X90807007Y-106715925D01*
X90870590Y-106732962D01*
X90130893Y-107472658D01*
X90213828Y-107532914D01*
X90424197Y-107640102D01*
X90648752Y-107713065D01*
X90648751Y-107713065D01*
X90881948Y-107750000D01*
X91118052Y-107750000D01*
X91351247Y-107713065D01*
X91575802Y-107640102D01*
X91786163Y-107532918D01*
X91786169Y-107532914D01*
X91869104Y-107472658D01*
X91869105Y-107472658D01*
X91129408Y-106732962D01*
X91192993Y-106715925D01*
X91307007Y-106650099D01*
X91400099Y-106557007D01*
X91465925Y-106442993D01*
X91482962Y-106379409D01*
X92222658Y-107119105D01*
X92222658Y-107119104D01*
X92282914Y-107036169D01*
X92282918Y-107036163D01*
X92390102Y-106825802D01*
X92463065Y-106601247D01*
X92500000Y-106368052D01*
X92500000Y-106131947D01*
X92463065Y-105898752D01*
X92390102Y-105674197D01*
X92282914Y-105463828D01*
X92222658Y-105380894D01*
X92222658Y-105380893D01*
X91482962Y-106120590D01*
X91465925Y-106057007D01*
X91400099Y-105942993D01*
X91307007Y-105849901D01*
X91192993Y-105784075D01*
X91129409Y-105767037D01*
X91869105Y-105027340D01*
X91869104Y-105027338D01*
X91786174Y-104967087D01*
X91575802Y-104859897D01*
X91351247Y-104786934D01*
X91351248Y-104786934D01*
X91118052Y-104750000D01*
X90881948Y-104750000D01*
X90648752Y-104786934D01*
X90424197Y-104859897D01*
X90213830Y-104967084D01*
X90130894Y-105027340D01*
X90870591Y-105767037D01*
X90807007Y-105784075D01*
X90692993Y-105849901D01*
X90599901Y-105942993D01*
X90534075Y-106057007D01*
X90517037Y-106120591D01*
X89777340Y-105380894D01*
X89717084Y-105463830D01*
X89609897Y-105674197D01*
X89536934Y-105898752D01*
X89500000Y-106131947D01*
X84900499Y-106131947D01*
X84900499Y-105202128D01*
X84894091Y-105142517D01*
X84894090Y-105142514D01*
X84884922Y-105117931D01*
X84843797Y-105007671D01*
X84843793Y-105007664D01*
X84757547Y-104892455D01*
X84757544Y-104892452D01*
X84642335Y-104806206D01*
X84642328Y-104806202D01*
X84507482Y-104755908D01*
X84507483Y-104755908D01*
X84447883Y-104749501D01*
X84447881Y-104749500D01*
X84447873Y-104749500D01*
X84447865Y-104749500D01*
X82800097Y-104749500D01*
X82733058Y-104729815D01*
X82712416Y-104713181D01*
X81886819Y-103887584D01*
X81853334Y-103826261D01*
X81850500Y-103799903D01*
X81850500Y-101050097D01*
X81870185Y-100983058D01*
X81886819Y-100962416D01*
X82462417Y-100386819D01*
X82523740Y-100353334D01*
X82550098Y-100350500D01*
X100663331Y-100350500D01*
X100663347Y-100350501D01*
X100670943Y-100350501D01*
X100829054Y-100350501D01*
X100829057Y-100350501D01*
X100981785Y-100309577D01*
X101031904Y-100280639D01*
X101118716Y-100230520D01*
X101230520Y-100118716D01*
X101230520Y-100118714D01*
X101240728Y-100108507D01*
X101240729Y-100108504D01*
X103962417Y-97386819D01*
X104023740Y-97353334D01*
X104050098Y-97350500D01*
X108863331Y-97350500D01*
X108863347Y-97350501D01*
X108870943Y-97350501D01*
X109029054Y-97350501D01*
X109029057Y-97350501D01*
X109181785Y-97309577D01*
X109231904Y-97280639D01*
X109318716Y-97230520D01*
X109430520Y-97118716D01*
X109430520Y-97118714D01*
X109440728Y-97108507D01*
X109440730Y-97108504D01*
X110680158Y-95869075D01*
X110741479Y-95835592D01*
X110806151Y-95838825D01*
X110820466Y-95843477D01*
X110820471Y-95843477D01*
X110820472Y-95843478D01*
X110848713Y-95847951D01*
X111022648Y-95875500D01*
X111022649Y-95875500D01*
X111215902Y-95875500D01*
X111282941Y-95895185D01*
X111328696Y-95947989D01*
X111338640Y-96017147D01*
X111309615Y-96080703D01*
X111303583Y-96087181D01*
X104027584Y-103363181D01*
X103966261Y-103396666D01*
X103939903Y-103399500D01*
X100586669Y-103399500D01*
X100586653Y-103399499D01*
X100579057Y-103399499D01*
X100420943Y-103399499D01*
X100313587Y-103428265D01*
X100268210Y-103440424D01*
X100268209Y-103440425D01*
X100218096Y-103469359D01*
X100218095Y-103469360D01*
X100174689Y-103494420D01*
X100131285Y-103519479D01*
X100131282Y-103519481D01*
X94269481Y-109381282D01*
X94269479Y-109381285D01*
X94219361Y-109468094D01*
X94219359Y-109468096D01*
X94190425Y-109518209D01*
X94190424Y-109518210D01*
X94190423Y-109518215D01*
X94149499Y-109670943D01*
X94149499Y-109670945D01*
X94149499Y-109839046D01*
X94149500Y-109839059D01*
X94149500Y-113663330D01*
X94149499Y-113663348D01*
X94149499Y-113829054D01*
X94149498Y-113829054D01*
X94157390Y-113858507D01*
X94190423Y-113981785D01*
X94218631Y-114030642D01*
X94219358Y-114031900D01*
X94219359Y-114031904D01*
X94219360Y-114031904D01*
X94269479Y-114118714D01*
X94269481Y-114118717D01*
X94381284Y-114230520D01*
X94468095Y-114280639D01*
X94468097Y-114280641D01*
X94506151Y-114302611D01*
X94518215Y-114309577D01*
X94670943Y-114350501D01*
X94670946Y-114350501D01*
X94829054Y-114350501D01*
X94829057Y-114350501D01*
X94981785Y-114309577D01*
X95031904Y-114280639D01*
X95118716Y-114230520D01*
X95212418Y-114136817D01*
X95273739Y-114103334D01*
X95300098Y-114100500D01*
X118413331Y-114100500D01*
X118413347Y-114100501D01*
X118420943Y-114100501D01*
X118579054Y-114100501D01*
X118579057Y-114100501D01*
X118731785Y-114059577D01*
X118781904Y-114030639D01*
X118868716Y-113980520D01*
X118980520Y-113868716D01*
X118980520Y-113868714D01*
X118990728Y-113858507D01*
X118990730Y-113858504D01*
X124462416Y-108386818D01*
X124523739Y-108353333D01*
X124550097Y-108350499D01*
X125897871Y-108350499D01*
X125897872Y-108350499D01*
X125957483Y-108344091D01*
X126092331Y-108293796D01*
X126207546Y-108207546D01*
X126293796Y-108092331D01*
X126344091Y-107957483D01*
X126350500Y-107897873D01*
X126350499Y-106102128D01*
X126344091Y-106042517D01*
X126329286Y-106002824D01*
X126293797Y-105907671D01*
X126293793Y-105907664D01*
X126207547Y-105792455D01*
X126207544Y-105792452D01*
X126092335Y-105706206D01*
X126092328Y-105706202D01*
X125957482Y-105655908D01*
X125957483Y-105655908D01*
X125897883Y-105649501D01*
X125897881Y-105649500D01*
X125897873Y-105649500D01*
X125897864Y-105649500D01*
X124102129Y-105649500D01*
X124102123Y-105649501D01*
X124042516Y-105655908D01*
X123907671Y-105706202D01*
X123907664Y-105706206D01*
X123792455Y-105792452D01*
X123792452Y-105792455D01*
X123706206Y-105907664D01*
X123706202Y-105907671D01*
X123700682Y-105922473D01*
X123658811Y-105978407D01*
X123593346Y-106002824D01*
X123525073Y-105987972D01*
X123475668Y-105938567D01*
X123460500Y-105879140D01*
X123460500Y-101111456D01*
X123422052Y-100918170D01*
X123422051Y-100918169D01*
X123422051Y-100918165D01*
X123422049Y-100918160D01*
X123420283Y-100912338D01*
X123422512Y-100911661D01*
X123416153Y-100852475D01*
X123447432Y-100789998D01*
X123507524Y-100754350D01*
X123538181Y-100750500D01*
X148598542Y-100750500D01*
X148629566Y-100744328D01*
X148695188Y-100731275D01*
X148791836Y-100712051D01*
X148845165Y-100689961D01*
X148973914Y-100636632D01*
X149137782Y-100527139D01*
X149277139Y-100387782D01*
X149277139Y-100387780D01*
X149287347Y-100377573D01*
X149287348Y-100377570D01*
X152277140Y-97387781D01*
X152386632Y-97223914D01*
X152462052Y-97041835D01*
X152500500Y-96848540D01*
X152500500Y-96651459D01*
X152500500Y-31401459D01*
X152500500Y-31401456D01*
X152462052Y-31208170D01*
X152462051Y-31208169D01*
X152462051Y-31208165D01*
X152462049Y-31208160D01*
X152386635Y-31026092D01*
X152386628Y-31026079D01*
X152277139Y-30862218D01*
X152277136Y-30862214D01*
X152134686Y-30719764D01*
X152134655Y-30719735D01*
X148531479Y-27116559D01*
X148531459Y-27116537D01*
X148387785Y-26972863D01*
X148387781Y-26972860D01*
X148223920Y-26863371D01*
X148223911Y-26863366D01*
X148151315Y-26833296D01*
X148095165Y-26810038D01*
X148041836Y-26787949D01*
X148041832Y-26787948D01*
X148041828Y-26787946D01*
X147945188Y-26768724D01*
X147848544Y-26749500D01*
X147848541Y-26749500D01*
X103901459Y-26749500D01*
X103901454Y-26749500D01*
X103869391Y-26755876D01*
X103869392Y-26755877D01*
X103708170Y-26787946D01*
X103708164Y-26787948D01*
X103526088Y-26863366D01*
X103526079Y-26863371D01*
X103362219Y-26972859D01*
X103362215Y-26972862D01*
X100569940Y-29765139D01*
X100362220Y-29972859D01*
X100362218Y-29972861D01*
X100316865Y-30018214D01*
X100222859Y-30112219D01*
X100113371Y-30276080D01*
X100113366Y-30276089D01*
X100091427Y-30329057D01*
X100037950Y-30458161D01*
X100037947Y-30458170D01*
X100029726Y-30499501D01*
X99999500Y-30651454D01*
X99999500Y-30651459D01*
X99999500Y-40848541D01*
X99999500Y-40848543D01*
X99999499Y-40848543D01*
X100037947Y-41041829D01*
X100037950Y-41041839D01*
X100113364Y-41223907D01*
X100113371Y-41223920D01*
X100222860Y-41387781D01*
X100222863Y-41387785D01*
X100362214Y-41527136D01*
X100362218Y-41527139D01*
X100526079Y-41636628D01*
X100526092Y-41636635D01*
X100708160Y-41712049D01*
X100708165Y-41712051D01*
X100708169Y-41712051D01*
X100708170Y-41712052D01*
X100901456Y-41750500D01*
X100901459Y-41750500D01*
X101098541Y-41750500D01*
X111694218Y-41750500D01*
X111761257Y-41770185D01*
X111781899Y-41786819D01*
X114859003Y-44863923D01*
X114892488Y-44925246D01*
X114887504Y-44994938D01*
X114845632Y-45050871D01*
X114809641Y-45069535D01*
X114685776Y-45109781D01*
X114503386Y-45202715D01*
X114337786Y-45323028D01*
X114193028Y-45467786D01*
X114072715Y-45633386D01*
X114025485Y-45726080D01*
X113977510Y-45776876D01*
X113909689Y-45793671D01*
X113843554Y-45771134D01*
X113804515Y-45726080D01*
X113757419Y-45633650D01*
X113757287Y-45633390D01*
X113749556Y-45622749D01*
X113636971Y-45467786D01*
X113492213Y-45323028D01*
X113326613Y-45202715D01*
X113326612Y-45202714D01*
X113326610Y-45202713D01*
X113269653Y-45173691D01*
X113144223Y-45109781D01*
X112949534Y-45046522D01*
X112761690Y-45016771D01*
X112747352Y-45014500D01*
X112542648Y-45014500D01*
X112528310Y-45016771D01*
X112340465Y-45046522D01*
X112145776Y-45109781D01*
X111963386Y-45202715D01*
X111797786Y-45323028D01*
X111653028Y-45467786D01*
X111532715Y-45633386D01*
X111485485Y-45726080D01*
X111437510Y-45776876D01*
X111369689Y-45793671D01*
X111303554Y-45771134D01*
X111264515Y-45726080D01*
X111217419Y-45633650D01*
X111217287Y-45633390D01*
X111209556Y-45622749D01*
X111096971Y-45467786D01*
X110952213Y-45323028D01*
X110786613Y-45202715D01*
X110786612Y-45202714D01*
X110786610Y-45202713D01*
X110729653Y-45173691D01*
X110604223Y-45109781D01*
X110409534Y-45046522D01*
X110221690Y-45016771D01*
X110207352Y-45014500D01*
X110002648Y-45014500D01*
X109988310Y-45016771D01*
X109800465Y-45046522D01*
X109605776Y-45109781D01*
X109423386Y-45202715D01*
X109257786Y-45323028D01*
X109113032Y-45467782D01*
X109086668Y-45504070D01*
X109031338Y-45546735D01*
X108961724Y-45552714D01*
X108899929Y-45520108D01*
X108865572Y-45459269D01*
X108863060Y-45444438D01*
X108862640Y-45440533D01*
X108859091Y-45407517D01*
X108808796Y-45272669D01*
X108808795Y-45272668D01*
X108808793Y-45272664D01*
X108722547Y-45157455D01*
X108722544Y-45157452D01*
X108607335Y-45071206D01*
X108607328Y-45071202D01*
X108472482Y-45020908D01*
X108472483Y-45020908D01*
X108412883Y-45014501D01*
X108412881Y-45014500D01*
X108412873Y-45014500D01*
X108412864Y-45014500D01*
X106717129Y-45014500D01*
X106717123Y-45014501D01*
X106657516Y-45020908D01*
X106522671Y-45071202D01*
X106522664Y-45071206D01*
X106407455Y-45157452D01*
X106407452Y-45157455D01*
X106321206Y-45272664D01*
X106321202Y-45272671D01*
X106270908Y-45407517D01*
X106264501Y-45467116D01*
X106264500Y-45467135D01*
X106264500Y-47162870D01*
X106264501Y-47162876D01*
X106270908Y-47222483D01*
X106321202Y-47357328D01*
X106321206Y-47357335D01*
X106407452Y-47472544D01*
X106407455Y-47472547D01*
X106522664Y-47558793D01*
X106522671Y-47558797D01*
X106657517Y-47609091D01*
X106657516Y-47609091D01*
X106664444Y-47609835D01*
X106717127Y-47615500D01*
X108412872Y-47615499D01*
X108472483Y-47609091D01*
X108607331Y-47558796D01*
X108722546Y-47472546D01*
X108808796Y-47357331D01*
X108859091Y-47222483D01*
X108863061Y-47185556D01*
X108889796Y-47121011D01*
X108947188Y-47081161D01*
X109017013Y-47078666D01*
X109077102Y-47114317D01*
X109086667Y-47125929D01*
X109113032Y-47162217D01*
X109257786Y-47306971D01*
X109412749Y-47419556D01*
X109423390Y-47427287D01*
X109512212Y-47472544D01*
X109605776Y-47520218D01*
X109605778Y-47520218D01*
X109605781Y-47520220D01*
X109710137Y-47554127D01*
X109800465Y-47583477D01*
X109901557Y-47599488D01*
X110002648Y-47615500D01*
X110002649Y-47615500D01*
X110207351Y-47615500D01*
X110207352Y-47615500D01*
X110409534Y-47583477D01*
X110604219Y-47520220D01*
X110786610Y-47427287D01*
X110882901Y-47357328D01*
X110952213Y-47306971D01*
X110952215Y-47306968D01*
X110952219Y-47306966D01*
X111096966Y-47162219D01*
X111096968Y-47162215D01*
X111096971Y-47162213D01*
X111217284Y-46996614D01*
X111217286Y-46996611D01*
X111217287Y-46996610D01*
X111264516Y-46903917D01*
X111312489Y-46853123D01*
X111380310Y-46836328D01*
X111446445Y-46858865D01*
X111485485Y-46903919D01*
X111532715Y-46996614D01*
X111653028Y-47162213D01*
X111797786Y-47306971D01*
X111952749Y-47419556D01*
X111963390Y-47427287D01*
X112052212Y-47472544D01*
X112145776Y-47520218D01*
X112145778Y-47520218D01*
X112145781Y-47520220D01*
X112250137Y-47554127D01*
X112340465Y-47583477D01*
X112441557Y-47599488D01*
X112542648Y-47615500D01*
X112542649Y-47615500D01*
X112747351Y-47615500D01*
X112747352Y-47615500D01*
X112949534Y-47583477D01*
X113144219Y-47520220D01*
X113326610Y-47427287D01*
X113422901Y-47357328D01*
X113492213Y-47306971D01*
X113492215Y-47306968D01*
X113492219Y-47306966D01*
X113636966Y-47162219D01*
X113636968Y-47162215D01*
X113636971Y-47162213D01*
X113757284Y-46996614D01*
X113757286Y-46996611D01*
X113757287Y-46996610D01*
X113804516Y-46903917D01*
X113852489Y-46853123D01*
X113920310Y-46836328D01*
X113986445Y-46858865D01*
X114025485Y-46903919D01*
X114072715Y-46996614D01*
X114193028Y-47162213D01*
X114337786Y-47306971D01*
X114492749Y-47419556D01*
X114503390Y-47427287D01*
X114592212Y-47472544D01*
X114685776Y-47520218D01*
X114685778Y-47520218D01*
X114685781Y-47520220D01*
X114790137Y-47554127D01*
X114880465Y-47583477D01*
X114981557Y-47599488D01*
X115082648Y-47615500D01*
X115082649Y-47615500D01*
X115287351Y-47615500D01*
X115287352Y-47615500D01*
X115489534Y-47583477D01*
X115684219Y-47520220D01*
X115866610Y-47427287D01*
X115962901Y-47357328D01*
X116032213Y-47306971D01*
X116032215Y-47306968D01*
X116032219Y-47306966D01*
X116176966Y-47162219D01*
X116176968Y-47162215D01*
X116176971Y-47162213D01*
X116297284Y-46996614D01*
X116297286Y-46996611D01*
X116297287Y-46996610D01*
X116344516Y-46903917D01*
X116392489Y-46853123D01*
X116460310Y-46836328D01*
X116526445Y-46858865D01*
X116565485Y-46903919D01*
X116612715Y-46996614D01*
X116733028Y-47162213D01*
X116877786Y-47306971D01*
X117032749Y-47419556D01*
X117043390Y-47427287D01*
X117132212Y-47472544D01*
X117225776Y-47520218D01*
X117225778Y-47520218D01*
X117225781Y-47520220D01*
X117330137Y-47554127D01*
X117420465Y-47583477D01*
X117521557Y-47599488D01*
X117622648Y-47615500D01*
X117622649Y-47615500D01*
X117827351Y-47615500D01*
X117827352Y-47615500D01*
X118029534Y-47583477D01*
X118224219Y-47520220D01*
X118406610Y-47427287D01*
X118502901Y-47357328D01*
X118572213Y-47306971D01*
X118572215Y-47306968D01*
X118572219Y-47306966D01*
X118716966Y-47162219D01*
X118716968Y-47162215D01*
X118716971Y-47162213D01*
X118837284Y-46996614D01*
X118837286Y-46996611D01*
X118837287Y-46996610D01*
X118884795Y-46903369D01*
X118932770Y-46852574D01*
X119000591Y-46835779D01*
X119066725Y-46858316D01*
X119105765Y-46903370D01*
X119153140Y-46996349D01*
X119273417Y-47161894D01*
X119273417Y-47161895D01*
X119418104Y-47306582D01*
X119583650Y-47426859D01*
X119765968Y-47519754D01*
X119960578Y-47582988D01*
X120015000Y-47591607D01*
X120015000Y-46748012D01*
X120072007Y-46780925D01*
X120199174Y-46815000D01*
X120330826Y-46815000D01*
X120457993Y-46780925D01*
X120515000Y-46748012D01*
X120515000Y-47591606D01*
X120569421Y-47582988D01*
X120764031Y-47519754D01*
X120946349Y-47426859D01*
X121111894Y-47306582D01*
X121111895Y-47306582D01*
X121256582Y-47161895D01*
X121256582Y-47161894D01*
X121376859Y-46996349D01*
X121424515Y-46902820D01*
X121472489Y-46852024D01*
X121540310Y-46835229D01*
X121606445Y-46857766D01*
X121645485Y-46902820D01*
X121693140Y-46996349D01*
X121813417Y-47161894D01*
X121813417Y-47161895D01*
X121958104Y-47306582D01*
X122123650Y-47426859D01*
X122305968Y-47519754D01*
X122500578Y-47582988D01*
X122555000Y-47591607D01*
X122555000Y-46748012D01*
X122612007Y-46780925D01*
X122739174Y-46815000D01*
X122870826Y-46815000D01*
X122997993Y-46780925D01*
X123055000Y-46748012D01*
X123055000Y-47591606D01*
X123109421Y-47582988D01*
X123304031Y-47519754D01*
X123486349Y-47426859D01*
X123651894Y-47306582D01*
X123651895Y-47306582D01*
X123796582Y-47161895D01*
X123796582Y-47161894D01*
X123916861Y-46996347D01*
X123964234Y-46903371D01*
X124012208Y-46852575D01*
X124080028Y-46835779D01*
X124146164Y-46858316D01*
X124185203Y-46903369D01*
X124232713Y-46996611D01*
X124353028Y-47162213D01*
X124497786Y-47306971D01*
X124652749Y-47419556D01*
X124663390Y-47427287D01*
X124752212Y-47472544D01*
X124845776Y-47520218D01*
X124845778Y-47520218D01*
X124845781Y-47520220D01*
X124950137Y-47554127D01*
X125040465Y-47583477D01*
X125141557Y-47599488D01*
X125242648Y-47615500D01*
X125242649Y-47615500D01*
X125447351Y-47615500D01*
X125447352Y-47615500D01*
X125649534Y-47583477D01*
X125844219Y-47520220D01*
X126026610Y-47427287D01*
X126122901Y-47357328D01*
X126192213Y-47306971D01*
X126192215Y-47306968D01*
X126192219Y-47306966D01*
X126336966Y-47162219D01*
X126336968Y-47162215D01*
X126336971Y-47162213D01*
X126397670Y-47078666D01*
X126457287Y-46996610D01*
X126550220Y-46814219D01*
X126613477Y-46619534D01*
X126645500Y-46417352D01*
X126645500Y-46212648D01*
X129124500Y-46212648D01*
X129124500Y-46417351D01*
X129156522Y-46619534D01*
X129219781Y-46814223D01*
X129312715Y-46996613D01*
X129433028Y-47162213D01*
X129577786Y-47306971D01*
X129732749Y-47419556D01*
X129743390Y-47427287D01*
X129832212Y-47472544D01*
X129925776Y-47520218D01*
X129925778Y-47520218D01*
X129925781Y-47520220D01*
X130030137Y-47554127D01*
X130120465Y-47583477D01*
X130221557Y-47599488D01*
X130322648Y-47615500D01*
X130322649Y-47615500D01*
X130527351Y-47615500D01*
X130527352Y-47615500D01*
X130729534Y-47583477D01*
X130924219Y-47520220D01*
X131106610Y-47427287D01*
X131202901Y-47357328D01*
X131272213Y-47306971D01*
X131272215Y-47306968D01*
X131272219Y-47306966D01*
X131416966Y-47162219D01*
X131416968Y-47162215D01*
X131416971Y-47162213D01*
X131537284Y-46996614D01*
X131537286Y-46996611D01*
X131537287Y-46996610D01*
X131584516Y-46903917D01*
X131632489Y-46853123D01*
X131700310Y-46836328D01*
X131766445Y-46858865D01*
X131805485Y-46903919D01*
X131852715Y-46996614D01*
X131973028Y-47162213D01*
X132117786Y-47306971D01*
X132272749Y-47419556D01*
X132283390Y-47427287D01*
X132372212Y-47472544D01*
X132465776Y-47520218D01*
X132465778Y-47520218D01*
X132465781Y-47520220D01*
X132570137Y-47554127D01*
X132660465Y-47583477D01*
X132761557Y-47599488D01*
X132862648Y-47615500D01*
X132862649Y-47615500D01*
X133067351Y-47615500D01*
X133067352Y-47615500D01*
X133269534Y-47583477D01*
X133464219Y-47520220D01*
X133646610Y-47427287D01*
X133742901Y-47357328D01*
X133812213Y-47306971D01*
X133812215Y-47306968D01*
X133812219Y-47306966D01*
X133956966Y-47162219D01*
X133956968Y-47162215D01*
X133956971Y-47162213D01*
X134077284Y-46996614D01*
X134077286Y-46996611D01*
X134077287Y-46996610D01*
X134124516Y-46903917D01*
X134172489Y-46853123D01*
X134240310Y-46836328D01*
X134306445Y-46858865D01*
X134345485Y-46903919D01*
X134392715Y-46996614D01*
X134513028Y-47162213D01*
X134657786Y-47306971D01*
X134812749Y-47419556D01*
X134823390Y-47427287D01*
X134912212Y-47472544D01*
X135005776Y-47520218D01*
X135005778Y-47520218D01*
X135005781Y-47520220D01*
X135110137Y-47554127D01*
X135200465Y-47583477D01*
X135301557Y-47599488D01*
X135402648Y-47615500D01*
X135402649Y-47615500D01*
X135607351Y-47615500D01*
X135607352Y-47615500D01*
X135809534Y-47583477D01*
X136004219Y-47520220D01*
X136186610Y-47427287D01*
X136282901Y-47357328D01*
X136352213Y-47306971D01*
X136352215Y-47306968D01*
X136352219Y-47306966D01*
X136496966Y-47162219D01*
X136496968Y-47162215D01*
X136496971Y-47162213D01*
X136617284Y-46996614D01*
X136617286Y-46996611D01*
X136617287Y-46996610D01*
X136664516Y-46903917D01*
X136712489Y-46853123D01*
X136780310Y-46836328D01*
X136846445Y-46858865D01*
X136885485Y-46903919D01*
X136932715Y-46996614D01*
X137053028Y-47162213D01*
X137197786Y-47306971D01*
X137352749Y-47419556D01*
X137363390Y-47427287D01*
X137452212Y-47472544D01*
X137545776Y-47520218D01*
X137545778Y-47520218D01*
X137545781Y-47520220D01*
X137650137Y-47554127D01*
X137740465Y-47583477D01*
X137841557Y-47599488D01*
X137942648Y-47615500D01*
X137942649Y-47615500D01*
X138147351Y-47615500D01*
X138147352Y-47615500D01*
X138349534Y-47583477D01*
X138544219Y-47520220D01*
X138726610Y-47427287D01*
X138822901Y-47357328D01*
X138892213Y-47306971D01*
X138892215Y-47306968D01*
X138892219Y-47306966D01*
X139036966Y-47162219D01*
X139036968Y-47162215D01*
X139036971Y-47162213D01*
X139157284Y-46996614D01*
X139157286Y-46996611D01*
X139157287Y-46996610D01*
X139204516Y-46903917D01*
X139252489Y-46853123D01*
X139320310Y-46836328D01*
X139386445Y-46858865D01*
X139425485Y-46903919D01*
X139472715Y-46996614D01*
X139593028Y-47162213D01*
X139737786Y-47306971D01*
X139892749Y-47419556D01*
X139903390Y-47427287D01*
X139992212Y-47472544D01*
X140085776Y-47520218D01*
X140085778Y-47520218D01*
X140085781Y-47520220D01*
X140190137Y-47554127D01*
X140280465Y-47583477D01*
X140381557Y-47599488D01*
X140482648Y-47615500D01*
X140482649Y-47615500D01*
X140687351Y-47615500D01*
X140687352Y-47615500D01*
X140889534Y-47583477D01*
X141084219Y-47520220D01*
X141266610Y-47427287D01*
X141362901Y-47357328D01*
X141432213Y-47306971D01*
X141432215Y-47306968D01*
X141432219Y-47306966D01*
X141576966Y-47162219D01*
X141576968Y-47162215D01*
X141576971Y-47162213D01*
X141697284Y-46996614D01*
X141697286Y-46996611D01*
X141697287Y-46996610D01*
X141744516Y-46903917D01*
X141792489Y-46853123D01*
X141860310Y-46836328D01*
X141926445Y-46858865D01*
X141965485Y-46903919D01*
X142012715Y-46996614D01*
X142133028Y-47162213D01*
X142277786Y-47306971D01*
X142432749Y-47419556D01*
X142443390Y-47427287D01*
X142532212Y-47472544D01*
X142625776Y-47520218D01*
X142625778Y-47520218D01*
X142625781Y-47520220D01*
X142730137Y-47554127D01*
X142820465Y-47583477D01*
X142921557Y-47599488D01*
X143022648Y-47615500D01*
X143022649Y-47615500D01*
X143227351Y-47615500D01*
X143227352Y-47615500D01*
X143429534Y-47583477D01*
X143624219Y-47520220D01*
X143806610Y-47427287D01*
X143902901Y-47357328D01*
X143972213Y-47306971D01*
X143972215Y-47306968D01*
X143972219Y-47306966D01*
X144116966Y-47162219D01*
X144116968Y-47162215D01*
X144116971Y-47162213D01*
X144177670Y-47078666D01*
X144237287Y-46996610D01*
X144330220Y-46814219D01*
X144393477Y-46619534D01*
X144425500Y-46417352D01*
X144425500Y-46212648D01*
X144411144Y-46122007D01*
X144393477Y-46010465D01*
X144362426Y-45914901D01*
X144330220Y-45815781D01*
X144330218Y-45815778D01*
X144330218Y-45815776D01*
X144237419Y-45633650D01*
X144237287Y-45633390D01*
X144229556Y-45622749D01*
X144116971Y-45467786D01*
X143972213Y-45323028D01*
X143806613Y-45202715D01*
X143806612Y-45202714D01*
X143806610Y-45202713D01*
X143749653Y-45173691D01*
X143624223Y-45109781D01*
X143429534Y-45046522D01*
X143241690Y-45016771D01*
X143227352Y-45014500D01*
X143022648Y-45014500D01*
X143008310Y-45016771D01*
X142820465Y-45046522D01*
X142625776Y-45109781D01*
X142443386Y-45202715D01*
X142277786Y-45323028D01*
X142133028Y-45467786D01*
X142012715Y-45633386D01*
X141965485Y-45726080D01*
X141917510Y-45776876D01*
X141849689Y-45793671D01*
X141783554Y-45771134D01*
X141744515Y-45726080D01*
X141697419Y-45633650D01*
X141697287Y-45633390D01*
X141689556Y-45622749D01*
X141576971Y-45467786D01*
X141432213Y-45323028D01*
X141266613Y-45202715D01*
X141266612Y-45202714D01*
X141266610Y-45202713D01*
X141209653Y-45173691D01*
X141084223Y-45109781D01*
X140889534Y-45046522D01*
X140701690Y-45016771D01*
X140687352Y-45014500D01*
X140482648Y-45014500D01*
X140468310Y-45016771D01*
X140280465Y-45046522D01*
X140085776Y-45109781D01*
X139903386Y-45202715D01*
X139737786Y-45323028D01*
X139593028Y-45467786D01*
X139472715Y-45633386D01*
X139425485Y-45726080D01*
X139377510Y-45776876D01*
X139309689Y-45793671D01*
X139243554Y-45771134D01*
X139204515Y-45726080D01*
X139157419Y-45633650D01*
X139157287Y-45633390D01*
X139149556Y-45622749D01*
X139036971Y-45467786D01*
X138892213Y-45323028D01*
X138726613Y-45202715D01*
X138726612Y-45202714D01*
X138726610Y-45202713D01*
X138669653Y-45173691D01*
X138544223Y-45109781D01*
X138349534Y-45046522D01*
X138161690Y-45016771D01*
X138147352Y-45014500D01*
X137942648Y-45014500D01*
X137928310Y-45016771D01*
X137740465Y-45046522D01*
X137545776Y-45109781D01*
X137363386Y-45202715D01*
X137197786Y-45323028D01*
X137053028Y-45467786D01*
X136932715Y-45633386D01*
X136885485Y-45726080D01*
X136837510Y-45776876D01*
X136769689Y-45793671D01*
X136703554Y-45771134D01*
X136664515Y-45726080D01*
X136617419Y-45633650D01*
X136617287Y-45633390D01*
X136609556Y-45622749D01*
X136496971Y-45467786D01*
X136352213Y-45323028D01*
X136186613Y-45202715D01*
X136186612Y-45202714D01*
X136186610Y-45202713D01*
X136129653Y-45173691D01*
X136004223Y-45109781D01*
X135809534Y-45046522D01*
X135621690Y-45016771D01*
X135607352Y-45014500D01*
X135402648Y-45014500D01*
X135388310Y-45016771D01*
X135200465Y-45046522D01*
X135005776Y-45109781D01*
X134823386Y-45202715D01*
X134657786Y-45323028D01*
X134513028Y-45467786D01*
X134392715Y-45633386D01*
X134345485Y-45726080D01*
X134297510Y-45776876D01*
X134229689Y-45793671D01*
X134163554Y-45771134D01*
X134124515Y-45726080D01*
X134077419Y-45633650D01*
X134077287Y-45633390D01*
X134069556Y-45622749D01*
X133956971Y-45467786D01*
X133812213Y-45323028D01*
X133646613Y-45202715D01*
X133646612Y-45202714D01*
X133646610Y-45202713D01*
X133589653Y-45173691D01*
X133464223Y-45109781D01*
X133269534Y-45046522D01*
X133081690Y-45016771D01*
X133067352Y-45014500D01*
X132862648Y-45014500D01*
X132848310Y-45016771D01*
X132660465Y-45046522D01*
X132465776Y-45109781D01*
X132283386Y-45202715D01*
X132117786Y-45323028D01*
X131973028Y-45467786D01*
X131852715Y-45633386D01*
X131805485Y-45726080D01*
X131757510Y-45776876D01*
X131689689Y-45793671D01*
X131623554Y-45771134D01*
X131584515Y-45726080D01*
X131537419Y-45633650D01*
X131537287Y-45633390D01*
X131529556Y-45622749D01*
X131416971Y-45467786D01*
X131272213Y-45323028D01*
X131106613Y-45202715D01*
X131106612Y-45202714D01*
X131106610Y-45202713D01*
X131049653Y-45173691D01*
X130924223Y-45109781D01*
X130729534Y-45046522D01*
X130541690Y-45016771D01*
X130527352Y-45014500D01*
X130322648Y-45014500D01*
X130308310Y-45016771D01*
X130120465Y-45046522D01*
X129925776Y-45109781D01*
X129743386Y-45202715D01*
X129577786Y-45323028D01*
X129433028Y-45467786D01*
X129312715Y-45633386D01*
X129219781Y-45815776D01*
X129156522Y-46010465D01*
X129124500Y-46212648D01*
X126645500Y-46212648D01*
X126631144Y-46122007D01*
X126613478Y-46010472D01*
X126613477Y-46010471D01*
X126613477Y-46010466D01*
X126608825Y-45996151D01*
X126606832Y-45926312D01*
X126639075Y-45870158D01*
X128872416Y-43636819D01*
X128933739Y-43603334D01*
X128960097Y-43600500D01*
X137663331Y-43600500D01*
X137663347Y-43600501D01*
X137670943Y-43600501D01*
X137829054Y-43600501D01*
X137829057Y-43600501D01*
X137981785Y-43559577D01*
X138031904Y-43530639D01*
X138118716Y-43480520D01*
X138230520Y-43368716D01*
X138230521Y-43368714D01*
X138730520Y-42868716D01*
X138809577Y-42731784D01*
X138850501Y-42579057D01*
X138850501Y-42420942D01*
X138850501Y-42413347D01*
X138850500Y-42413329D01*
X138850500Y-42329765D01*
X138870185Y-42262726D01*
X138871398Y-42260874D01*
X138959390Y-42129185D01*
X138959390Y-42129184D01*
X138959394Y-42129179D01*
X139019737Y-41983497D01*
X139050500Y-41828842D01*
X139050500Y-41671158D01*
X139050500Y-41671155D01*
X139050499Y-41671153D01*
X139043632Y-41636632D01*
X139019737Y-41516503D01*
X138966421Y-41387785D01*
X138959397Y-41370827D01*
X138959390Y-41370814D01*
X138871789Y-41239711D01*
X138871786Y-41239707D01*
X138760292Y-41128213D01*
X138760288Y-41128210D01*
X138629185Y-41040609D01*
X138629172Y-41040602D01*
X138483501Y-40980264D01*
X138483489Y-40980261D01*
X138328845Y-40949500D01*
X138328842Y-40949500D01*
X138171158Y-40949500D01*
X138171155Y-40949500D01*
X138016510Y-40980261D01*
X138016498Y-40980264D01*
X137870827Y-41040602D01*
X137870814Y-41040609D01*
X137739711Y-41128210D01*
X137739707Y-41128213D01*
X137628213Y-41239707D01*
X137628210Y-41239711D01*
X137540609Y-41370814D01*
X137540602Y-41370827D01*
X137480264Y-41516498D01*
X137480261Y-41516510D01*
X137449500Y-41671153D01*
X137449500Y-41828846D01*
X137480261Y-41983489D01*
X137480264Y-41983501D01*
X137540602Y-42129172D01*
X137540609Y-42129185D01*
X137576585Y-42183026D01*
X137586069Y-42213317D01*
X137597167Y-42243066D01*
X137596436Y-42246424D01*
X137597463Y-42249703D01*
X137589065Y-42280314D01*
X137582318Y-42311339D01*
X137579535Y-42315056D01*
X137578979Y-42317084D01*
X137561168Y-42339595D01*
X137537587Y-42363178D01*
X137476265Y-42396665D01*
X137449902Y-42399500D01*
X128746669Y-42399500D01*
X128746653Y-42399499D01*
X128739057Y-42399499D01*
X128580943Y-42399499D01*
X128501010Y-42420917D01*
X128428216Y-42440422D01*
X128395355Y-42459395D01*
X128395354Y-42459394D01*
X128291287Y-42519477D01*
X128291282Y-42519481D01*
X128179478Y-42631286D01*
X125789842Y-45020921D01*
X125728519Y-45054406D01*
X125663848Y-45051173D01*
X125649534Y-45046522D01*
X125461690Y-45016771D01*
X125447352Y-45014500D01*
X125242648Y-45014500D01*
X125228310Y-45016771D01*
X125040465Y-45046522D01*
X124845776Y-45109781D01*
X124663386Y-45202715D01*
X124497786Y-45323028D01*
X124353028Y-45467786D01*
X124232713Y-45633388D01*
X124185203Y-45726630D01*
X124137228Y-45777426D01*
X124069407Y-45794220D01*
X124003272Y-45771682D01*
X123964234Y-45726628D01*
X123916861Y-45633652D01*
X123796582Y-45468105D01*
X123796582Y-45468104D01*
X123651895Y-45323417D01*
X123486349Y-45203140D01*
X123304029Y-45110244D01*
X123109413Y-45047009D01*
X123055000Y-45038390D01*
X123055000Y-45881988D01*
X122997993Y-45849075D01*
X122870826Y-45815000D01*
X122739174Y-45815000D01*
X122612007Y-45849075D01*
X122555000Y-45881988D01*
X122555000Y-45038390D01*
X122500586Y-45047009D01*
X122305970Y-45110244D01*
X122123650Y-45203140D01*
X121958105Y-45323417D01*
X121958104Y-45323417D01*
X121813417Y-45468104D01*
X121813417Y-45468105D01*
X121693140Y-45633650D01*
X121645485Y-45727179D01*
X121597510Y-45777975D01*
X121529689Y-45794770D01*
X121463554Y-45772232D01*
X121424515Y-45727179D01*
X121376859Y-45633650D01*
X121256582Y-45468105D01*
X121256582Y-45468104D01*
X121111895Y-45323417D01*
X120946349Y-45203140D01*
X120764029Y-45110244D01*
X120569413Y-45047009D01*
X120515000Y-45038390D01*
X120515000Y-45881988D01*
X120457993Y-45849075D01*
X120330826Y-45815000D01*
X120199174Y-45815000D01*
X120072007Y-45849075D01*
X120015000Y-45881988D01*
X120015000Y-45038390D01*
X119960586Y-45047009D01*
X119765970Y-45110244D01*
X119583650Y-45203140D01*
X119418105Y-45323417D01*
X119418104Y-45323417D01*
X119273417Y-45468104D01*
X119273417Y-45468105D01*
X119153140Y-45633650D01*
X119105765Y-45726629D01*
X119057790Y-45777425D01*
X118989969Y-45794220D01*
X118923834Y-45771682D01*
X118884795Y-45726629D01*
X118837419Y-45633650D01*
X118837287Y-45633390D01*
X118829556Y-45622749D01*
X118716971Y-45467786D01*
X118572213Y-45323028D01*
X118406613Y-45202715D01*
X118406612Y-45202714D01*
X118406610Y-45202713D01*
X118224219Y-45109780D01*
X118029534Y-45046523D01*
X118029531Y-45046522D01*
X118029532Y-45046522D01*
X117881484Y-45023073D01*
X117818350Y-44993143D01*
X117813202Y-44988281D01*
X112944209Y-40119289D01*
X112944206Y-40119285D01*
X112944206Y-40119286D01*
X112937139Y-40112219D01*
X112937139Y-40112218D01*
X112797782Y-39972861D01*
X112797781Y-39972860D01*
X112797780Y-39972859D01*
X112633920Y-39863371D01*
X112633911Y-39863366D01*
X112561315Y-39833296D01*
X112505165Y-39810038D01*
X112451836Y-39787949D01*
X112451832Y-39787948D01*
X112451828Y-39787946D01*
X112355188Y-39768724D01*
X112258544Y-39749500D01*
X112258541Y-39749500D01*
X102124500Y-39749500D01*
X102057461Y-39729815D01*
X102011706Y-39677011D01*
X102000500Y-39625500D01*
X102000500Y-38721353D01*
X134470000Y-38721353D01*
X134470000Y-38860000D01*
X135120000Y-38860000D01*
X135120000Y-39360000D01*
X134470000Y-39360000D01*
X134470000Y-39498646D01*
X134504584Y-39672512D01*
X134504586Y-39672520D01*
X134572428Y-39836307D01*
X134572433Y-39836316D01*
X134670923Y-39983716D01*
X134670926Y-39983720D01*
X134796280Y-40109074D01*
X134870459Y-40158638D01*
X134915264Y-40212250D01*
X134924973Y-40273886D01*
X134924500Y-40278692D01*
X134924500Y-40278695D01*
X134924500Y-40441305D01*
X134924500Y-40441307D01*
X134924499Y-40441307D01*
X134956222Y-40600783D01*
X134956225Y-40600793D01*
X135018450Y-40751019D01*
X135018452Y-40751023D01*
X135108788Y-40886220D01*
X135108794Y-40886228D01*
X135223771Y-41001205D01*
X135223779Y-41001211D01*
X135358976Y-41091547D01*
X135358980Y-41091549D01*
X135447491Y-41128211D01*
X135509211Y-41153776D01*
X135509215Y-41153776D01*
X135509216Y-41153777D01*
X135668692Y-41185500D01*
X135668695Y-41185500D01*
X136131307Y-41185500D01*
X136238598Y-41164157D01*
X136290789Y-41153776D01*
X136441021Y-41091548D01*
X136441023Y-41091547D01*
X136517267Y-41040602D01*
X136576225Y-41001208D01*
X136691208Y-40886225D01*
X136781548Y-40751021D01*
X136843776Y-40600789D01*
X136875500Y-40441305D01*
X136875500Y-40278695D01*
X136875500Y-40278692D01*
X136843777Y-40119216D01*
X136843776Y-40119215D01*
X136843776Y-40119211D01*
X136840880Y-40112220D01*
X136781549Y-39968980D01*
X136781547Y-39968976D01*
X136691211Y-39833779D01*
X136691205Y-39833771D01*
X136576228Y-39718794D01*
X136576220Y-39718788D01*
X136441022Y-39628452D01*
X136346547Y-39589319D01*
X136292144Y-39545478D01*
X136270079Y-39479183D01*
X136270000Y-39474758D01*
X136270000Y-39360000D01*
X135620000Y-39360000D01*
X135620000Y-38860000D01*
X136270000Y-38860000D01*
X136270000Y-38721357D01*
X136269999Y-38721353D01*
X136235415Y-38547487D01*
X136235413Y-38547479D01*
X136167571Y-38383692D01*
X136167566Y-38383683D01*
X136069076Y-38236283D01*
X136069073Y-38236279D01*
X135943720Y-38110926D01*
X135943716Y-38110923D01*
X135796316Y-38012433D01*
X135796307Y-38012428D01*
X135632519Y-37944585D01*
X135620000Y-37942094D01*
X135620000Y-38760272D01*
X135581940Y-38668386D01*
X135511614Y-38598060D01*
X135419728Y-38560000D01*
X135320272Y-38560000D01*
X135228386Y-38598060D01*
X135158060Y-38668386D01*
X135120000Y-38760272D01*
X135120000Y-37942095D01*
X135119999Y-37942094D01*
X135107480Y-37944585D01*
X134943692Y-38012428D01*
X134943683Y-38012433D01*
X134796283Y-38110923D01*
X134796279Y-38110926D01*
X134670926Y-38236279D01*
X134670923Y-38236283D01*
X134572433Y-38383683D01*
X134572428Y-38383692D01*
X134504586Y-38547479D01*
X134504584Y-38547487D01*
X134470000Y-38721353D01*
X102000500Y-38721353D01*
X102000500Y-35897682D01*
X106960000Y-35897682D01*
X106960000Y-36102317D01*
X106992009Y-36304417D01*
X107055244Y-36499031D01*
X107148141Y-36681350D01*
X107148147Y-36681359D01*
X107180523Y-36725921D01*
X107180524Y-36725922D01*
X107860000Y-36046446D01*
X107860000Y-36052661D01*
X107887259Y-36154394D01*
X107939920Y-36245606D01*
X108014394Y-36320080D01*
X108105606Y-36372741D01*
X108207339Y-36400000D01*
X108213553Y-36400000D01*
X107534076Y-37079474D01*
X107578650Y-37111859D01*
X107760968Y-37204755D01*
X107955582Y-37267990D01*
X108157683Y-37300000D01*
X108362317Y-37300000D01*
X108564417Y-37267990D01*
X108759031Y-37204755D01*
X108941349Y-37111859D01*
X108985921Y-37079474D01*
X108306447Y-36400000D01*
X108312661Y-36400000D01*
X108414394Y-36372741D01*
X108505606Y-36320080D01*
X108580080Y-36245606D01*
X108632741Y-36154394D01*
X108660000Y-36052661D01*
X108660000Y-36046447D01*
X109339474Y-36725921D01*
X109371859Y-36681349D01*
X109464755Y-36499031D01*
X109527990Y-36304417D01*
X109560000Y-36102317D01*
X109560000Y-35897682D01*
X109527990Y-35695582D01*
X109464755Y-35500968D01*
X109371859Y-35318650D01*
X109339474Y-35274077D01*
X109339474Y-35274076D01*
X108660000Y-35953551D01*
X108660000Y-35947339D01*
X108632741Y-35845606D01*
X108580080Y-35754394D01*
X108505606Y-35679920D01*
X108414394Y-35627259D01*
X108312661Y-35600000D01*
X108306446Y-35600000D01*
X108985922Y-34920524D01*
X108985921Y-34920523D01*
X108941359Y-34888147D01*
X108941350Y-34888141D01*
X108759031Y-34795244D01*
X108564417Y-34732009D01*
X108362317Y-34700000D01*
X108157683Y-34700000D01*
X107955582Y-34732009D01*
X107760968Y-34795244D01*
X107578644Y-34888143D01*
X107534077Y-34920523D01*
X107534077Y-34920524D01*
X108213554Y-35600000D01*
X108207339Y-35600000D01*
X108105606Y-35627259D01*
X108014394Y-35679920D01*
X107939920Y-35754394D01*
X107887259Y-35845606D01*
X107860000Y-35947339D01*
X107860000Y-35953553D01*
X107180524Y-35274077D01*
X107180523Y-35274077D01*
X107148143Y-35318644D01*
X107055244Y-35500968D01*
X106992009Y-35695582D01*
X106960000Y-35897682D01*
X102000500Y-35897682D01*
X102000500Y-31215782D01*
X102020185Y-31148743D01*
X102036819Y-31128101D01*
X104378102Y-28786819D01*
X104439425Y-28753334D01*
X104465783Y-28750500D01*
X129634397Y-28750500D01*
X129701436Y-28770185D01*
X129747191Y-28822989D01*
X129757135Y-28892147D01*
X129728110Y-28955703D01*
X129696397Y-28981887D01*
X129631287Y-29019477D01*
X129631282Y-29019481D01*
X129519478Y-29131286D01*
X123944842Y-34705921D01*
X123883519Y-34739406D01*
X123818848Y-34736173D01*
X123804534Y-34731522D01*
X123629995Y-34703878D01*
X123602352Y-34699500D01*
X123397648Y-34699500D01*
X123373329Y-34703351D01*
X123195465Y-34731522D01*
X123000776Y-34794781D01*
X122818386Y-34887715D01*
X122652786Y-35008028D01*
X122508028Y-35152786D01*
X122387715Y-35318386D01*
X122294781Y-35500776D01*
X122231522Y-35695465D01*
X122199500Y-35897648D01*
X122199500Y-36102351D01*
X122231522Y-36304534D01*
X122294781Y-36499223D01*
X122358691Y-36624653D01*
X122387585Y-36681359D01*
X122387715Y-36681613D01*
X122508028Y-36847213D01*
X122652786Y-36991971D01*
X122773226Y-37079474D01*
X122818390Y-37112287D01*
X122934607Y-37171503D01*
X123000776Y-37205218D01*
X123000778Y-37205218D01*
X123000781Y-37205220D01*
X123105137Y-37239127D01*
X123195465Y-37268477D01*
X123296557Y-37284488D01*
X123397648Y-37300500D01*
X123397649Y-37300500D01*
X123602351Y-37300500D01*
X123602352Y-37300500D01*
X123804534Y-37268477D01*
X123999219Y-37205220D01*
X124181610Y-37112287D01*
X124274590Y-37044732D01*
X124347213Y-36991971D01*
X124347215Y-36991968D01*
X124347219Y-36991966D01*
X124491966Y-36847219D01*
X124491968Y-36847215D01*
X124491971Y-36847213D01*
X124544732Y-36774590D01*
X124612287Y-36681610D01*
X124705220Y-36499219D01*
X124768477Y-36304534D01*
X124800500Y-36102352D01*
X124800500Y-35897648D01*
X124768477Y-35695466D01*
X124763825Y-35681151D01*
X124761832Y-35611312D01*
X124794075Y-35555158D01*
X127577881Y-32771353D01*
X134110000Y-32771353D01*
X134110000Y-32910000D01*
X134760000Y-32910000D01*
X134760000Y-33410000D01*
X134110000Y-33410000D01*
X134110000Y-33548646D01*
X134144584Y-33722512D01*
X134144586Y-33722520D01*
X134212428Y-33886307D01*
X134212433Y-33886316D01*
X134310923Y-34033716D01*
X134310926Y-34033720D01*
X134436279Y-34159073D01*
X134436283Y-34159076D01*
X134583683Y-34257566D01*
X134583693Y-34257571D01*
X134747476Y-34325412D01*
X134747483Y-34325415D01*
X134760000Y-34327904D01*
X134760000Y-33509728D01*
X134798060Y-33601614D01*
X134868386Y-33671940D01*
X134960272Y-33710000D01*
X135059728Y-33710000D01*
X135151614Y-33671940D01*
X135221940Y-33601614D01*
X135260000Y-33509728D01*
X135260000Y-34327903D01*
X135272516Y-34325415D01*
X135272523Y-34325412D01*
X135436306Y-34257571D01*
X135436316Y-34257566D01*
X135583716Y-34159076D01*
X135583720Y-34159073D01*
X135709073Y-34033720D01*
X135709076Y-34033716D01*
X135807566Y-33886316D01*
X135807571Y-33886307D01*
X135875413Y-33722520D01*
X135875415Y-33722512D01*
X135909999Y-33548646D01*
X135910000Y-33548643D01*
X135910000Y-33410000D01*
X135260000Y-33410000D01*
X135260000Y-32910000D01*
X135910000Y-32910000D01*
X135910000Y-32771357D01*
X135909999Y-32771353D01*
X135875415Y-32597487D01*
X135875413Y-32597479D01*
X135807571Y-32433692D01*
X135807566Y-32433683D01*
X135709076Y-32286283D01*
X135709073Y-32286279D01*
X135583720Y-32160926D01*
X135583716Y-32160923D01*
X135436316Y-32062433D01*
X135436307Y-32062428D01*
X135272519Y-31994585D01*
X135260000Y-31992094D01*
X135260000Y-32810272D01*
X135221940Y-32718386D01*
X135151614Y-32648060D01*
X135059728Y-32610000D01*
X134960272Y-32610000D01*
X134868386Y-32648060D01*
X134798060Y-32718386D01*
X134760000Y-32810272D01*
X134760000Y-31992095D01*
X134759999Y-31992094D01*
X134747480Y-31994585D01*
X134583692Y-32062428D01*
X134583683Y-32062433D01*
X134436283Y-32160923D01*
X134436279Y-32160926D01*
X134310926Y-32286279D01*
X134310923Y-32286283D01*
X134212433Y-32433683D01*
X134212428Y-32433692D01*
X134144586Y-32597479D01*
X134144584Y-32597487D01*
X134110000Y-32771353D01*
X127577881Y-32771353D01*
X130212416Y-30136819D01*
X130273739Y-30103334D01*
X130300097Y-30100500D01*
X144199903Y-30100500D01*
X144266942Y-30120185D01*
X144287584Y-30136819D01*
X144613181Y-30462416D01*
X144646666Y-30523739D01*
X144649500Y-30550097D01*
X144649500Y-31986254D01*
X144629815Y-32053293D01*
X144577011Y-32099048D01*
X144507853Y-32108992D01*
X144456610Y-32089357D01*
X144416314Y-32062432D01*
X144416307Y-32062428D01*
X144252519Y-31994585D01*
X144240000Y-31992094D01*
X144240000Y-32810272D01*
X144201940Y-32718386D01*
X144131614Y-32648060D01*
X144039728Y-32610000D01*
X143940272Y-32610000D01*
X143848386Y-32648060D01*
X143778060Y-32718386D01*
X143740000Y-32810272D01*
X143740000Y-31992095D01*
X143739999Y-31992094D01*
X143727480Y-31994585D01*
X143563692Y-32062428D01*
X143563683Y-32062433D01*
X143416283Y-32160923D01*
X143416279Y-32160926D01*
X143290926Y-32286279D01*
X143290923Y-32286283D01*
X143192433Y-32433683D01*
X143192428Y-32433692D01*
X143124586Y-32597479D01*
X143124584Y-32597487D01*
X143090000Y-32771353D01*
X143090000Y-32910000D01*
X143740000Y-32910000D01*
X143740000Y-33410000D01*
X143090000Y-33410000D01*
X143090000Y-33548646D01*
X143124584Y-33722512D01*
X143124586Y-33722520D01*
X143192428Y-33886307D01*
X143192433Y-33886316D01*
X143290923Y-34033716D01*
X143290926Y-34033720D01*
X143416279Y-34159073D01*
X143416283Y-34159076D01*
X143563683Y-34257566D01*
X143563693Y-34257571D01*
X143727476Y-34325412D01*
X143727483Y-34325415D01*
X143740000Y-34327904D01*
X143740000Y-33509728D01*
X143778060Y-33601614D01*
X143848386Y-33671940D01*
X143940272Y-33710000D01*
X144039728Y-33710000D01*
X144131614Y-33671940D01*
X144201940Y-33601614D01*
X144240000Y-33509728D01*
X144240000Y-34327903D01*
X144252516Y-34325415D01*
X144252523Y-34325412D01*
X144416306Y-34257571D01*
X144416318Y-34257565D01*
X144456608Y-34230644D01*
X144523285Y-34209765D01*
X144590666Y-34228249D01*
X144637356Y-34280227D01*
X144649500Y-34333745D01*
X144649500Y-38307057D01*
X144629815Y-38374096D01*
X144577011Y-38419851D01*
X144507853Y-38429795D01*
X144444297Y-38400770D01*
X144422398Y-38375948D01*
X144329076Y-38236283D01*
X144329073Y-38236279D01*
X144203720Y-38110926D01*
X144203716Y-38110923D01*
X144056316Y-38012433D01*
X144056307Y-38012428D01*
X143892519Y-37944585D01*
X143880000Y-37942094D01*
X143880000Y-38760272D01*
X143841940Y-38668386D01*
X143771614Y-38598060D01*
X143679728Y-38560000D01*
X143580272Y-38560000D01*
X143488386Y-38598060D01*
X143418060Y-38668386D01*
X143380000Y-38760272D01*
X143380000Y-37942095D01*
X143379999Y-37942094D01*
X143367480Y-37944585D01*
X143203692Y-38012428D01*
X143203683Y-38012433D01*
X143056283Y-38110923D01*
X143056279Y-38110926D01*
X142930926Y-38236279D01*
X142930923Y-38236283D01*
X142832433Y-38383683D01*
X142832428Y-38383692D01*
X142764586Y-38547479D01*
X142764584Y-38547487D01*
X142730000Y-38721353D01*
X142730000Y-38860000D01*
X143380000Y-38860000D01*
X143380000Y-39360000D01*
X142730000Y-39360000D01*
X142730000Y-39498646D01*
X142764584Y-39672512D01*
X142764586Y-39672519D01*
X142795375Y-39746853D01*
X142802843Y-39816322D01*
X142771567Y-39878801D01*
X142752598Y-39893904D01*
X142753084Y-39894537D01*
X142746632Y-39899487D01*
X142639487Y-40006632D01*
X142639485Y-40006635D01*
X142563719Y-40137863D01*
X142524500Y-40284234D01*
X142524500Y-40435765D01*
X142563719Y-40582136D01*
X142574485Y-40600783D01*
X142639485Y-40713365D01*
X142746635Y-40820515D01*
X142877865Y-40896281D01*
X143024234Y-40935500D01*
X143024236Y-40935500D01*
X143175764Y-40935500D01*
X143175766Y-40935500D01*
X143322135Y-40896281D01*
X143453365Y-40820515D01*
X143560515Y-40713365D01*
X143636281Y-40582135D01*
X143675500Y-40435766D01*
X143675500Y-40420345D01*
X143695185Y-40353306D01*
X143747989Y-40307551D01*
X143775310Y-40298727D01*
X143892520Y-40275413D01*
X144056307Y-40207571D01*
X144056316Y-40207566D01*
X144203716Y-40109076D01*
X144203720Y-40109073D01*
X144329076Y-39983717D01*
X144422398Y-39844051D01*
X144476010Y-39799246D01*
X144545335Y-39790539D01*
X144608362Y-39820693D01*
X144645082Y-39880136D01*
X144649500Y-39912942D01*
X144649500Y-41525500D01*
X144629815Y-41592539D01*
X144577011Y-41638294D01*
X144525500Y-41649500D01*
X141161014Y-41649500D01*
X141093975Y-41629815D01*
X141048220Y-41577011D01*
X141039397Y-41549691D01*
X141019738Y-41450862D01*
X141019737Y-41450855D01*
X140986583Y-41370814D01*
X140959397Y-41305179D01*
X140959390Y-41305166D01*
X140871789Y-41174063D01*
X140871786Y-41174059D01*
X140760292Y-41062565D01*
X140760288Y-41062562D01*
X140629185Y-40974961D01*
X140629172Y-40974954D01*
X140483501Y-40914616D01*
X140483489Y-40914613D01*
X140328845Y-40883852D01*
X140328842Y-40883852D01*
X140171158Y-40883852D01*
X140171155Y-40883852D01*
X140016510Y-40914613D01*
X140016498Y-40914616D01*
X139870827Y-40974954D01*
X139870814Y-40974961D01*
X139739711Y-41062562D01*
X139739707Y-41062565D01*
X139628213Y-41174059D01*
X139628210Y-41174063D01*
X139540609Y-41305166D01*
X139540602Y-41305179D01*
X139480264Y-41450850D01*
X139480261Y-41450862D01*
X139449500Y-41605505D01*
X139449500Y-41763198D01*
X139480261Y-41917841D01*
X139480264Y-41917853D01*
X139540602Y-42063524D01*
X139540609Y-42063537D01*
X139628210Y-42194640D01*
X139628213Y-42194644D01*
X139739707Y-42306138D01*
X139739711Y-42306141D01*
X139870814Y-42393742D01*
X139870827Y-42393749D01*
X139983510Y-42440423D01*
X140016503Y-42454089D01*
X140081147Y-42466947D01*
X140171849Y-42484990D01*
X140188605Y-42493754D01*
X140207085Y-42497775D01*
X140232123Y-42516519D01*
X140233760Y-42517375D01*
X140235339Y-42518926D01*
X140330787Y-42614374D01*
X140330797Y-42614385D01*
X140335127Y-42618715D01*
X140335128Y-42618716D01*
X140446932Y-42730520D01*
X140512224Y-42768216D01*
X140583863Y-42809577D01*
X140736591Y-42850500D01*
X140736593Y-42850500D01*
X145329055Y-42850500D01*
X145329057Y-42850500D01*
X145481784Y-42809577D01*
X145618716Y-42730520D01*
X145730520Y-42618716D01*
X145809577Y-42481784D01*
X145850500Y-42329057D01*
X145850500Y-30170943D01*
X145809577Y-30018216D01*
X145809577Y-30018215D01*
X145809577Y-30018214D01*
X145780639Y-29968095D01*
X145780637Y-29968092D01*
X145730520Y-29881284D01*
X145618716Y-29769480D01*
X145618715Y-29769479D01*
X145614385Y-29765149D01*
X145614374Y-29765139D01*
X144987590Y-29138355D01*
X144987588Y-29138352D01*
X144868715Y-29019479D01*
X144831119Y-28997774D01*
X144803602Y-28981887D01*
X144755387Y-28931321D01*
X144742163Y-28862714D01*
X144768131Y-28797849D01*
X144825044Y-28757320D01*
X144865602Y-28750500D01*
X147284218Y-28750500D01*
X147351257Y-28770185D01*
X147371899Y-28786819D01*
X150463181Y-31878101D01*
X150496666Y-31939424D01*
X150499500Y-31965782D01*
X150499500Y-96284217D01*
X150479815Y-96351256D01*
X150463181Y-96371898D01*
X148121899Y-98713181D01*
X148060576Y-98746666D01*
X148034218Y-98749500D01*
X117651456Y-98749500D01*
X117458171Y-98787946D01*
X117458167Y-98787948D01*
X117458165Y-98787948D01*
X117458164Y-98787949D01*
X117382745Y-98819188D01*
X117382743Y-98819189D01*
X117276085Y-98863368D01*
X117276085Y-98863369D01*
X117276084Y-98863369D01*
X117112222Y-98972857D01*
X117112214Y-98972863D01*
X105971898Y-110113181D01*
X105910575Y-110146666D01*
X105884217Y-110149500D01*
X105019096Y-110149500D01*
X104952057Y-110129815D01*
X104906302Y-110077011D01*
X104896358Y-110007853D01*
X104925383Y-109944297D01*
X104931415Y-109937819D01*
X111506053Y-103363181D01*
X118993517Y-95875716D01*
X119045440Y-95846645D01*
X119044900Y-95844983D01*
X119083274Y-95832514D01*
X119244219Y-95780220D01*
X119426610Y-95687287D01*
X119519590Y-95619732D01*
X119592213Y-95566971D01*
X119592215Y-95566968D01*
X119592219Y-95566966D01*
X119736966Y-95422219D01*
X119736968Y-95422215D01*
X119736971Y-95422213D01*
X119857284Y-95256614D01*
X119857286Y-95256611D01*
X119857287Y-95256610D01*
X119904516Y-95163917D01*
X119952489Y-95113123D01*
X120020310Y-95096328D01*
X120086445Y-95118865D01*
X120125485Y-95163919D01*
X120172715Y-95256614D01*
X120293028Y-95422213D01*
X120437786Y-95566971D01*
X120592749Y-95679556D01*
X120603390Y-95687287D01*
X120719607Y-95746503D01*
X120785776Y-95780218D01*
X120785778Y-95780218D01*
X120785781Y-95780220D01*
X120890137Y-95814127D01*
X120980465Y-95843477D01*
X121081557Y-95859488D01*
X121182648Y-95875500D01*
X121182649Y-95875500D01*
X121387351Y-95875500D01*
X121387352Y-95875500D01*
X121589534Y-95843477D01*
X121784219Y-95780220D01*
X121966610Y-95687287D01*
X122059590Y-95619732D01*
X122132213Y-95566971D01*
X122132215Y-95566968D01*
X122132219Y-95566966D01*
X122276966Y-95422219D01*
X122276968Y-95422215D01*
X122276971Y-95422213D01*
X122341105Y-95333939D01*
X122397287Y-95256610D01*
X122490220Y-95074219D01*
X122553477Y-94879534D01*
X122585500Y-94677352D01*
X122585500Y-94472648D01*
X124044500Y-94472648D01*
X124044500Y-94677351D01*
X124076522Y-94879534D01*
X124139781Y-95074223D01*
X124232715Y-95256613D01*
X124353028Y-95422213D01*
X124497786Y-95566971D01*
X124652749Y-95679556D01*
X124663390Y-95687287D01*
X124779607Y-95746503D01*
X124845776Y-95780218D01*
X124845778Y-95780218D01*
X124845781Y-95780220D01*
X124950137Y-95814127D01*
X125040465Y-95843477D01*
X125141557Y-95859488D01*
X125242648Y-95875500D01*
X125242649Y-95875500D01*
X125447351Y-95875500D01*
X125447352Y-95875500D01*
X125649534Y-95843477D01*
X125844219Y-95780220D01*
X126026610Y-95687287D01*
X126119590Y-95619732D01*
X126192213Y-95566971D01*
X126192215Y-95566968D01*
X126192219Y-95566966D01*
X126336966Y-95422219D01*
X126336968Y-95422215D01*
X126336971Y-95422213D01*
X126457284Y-95256614D01*
X126457286Y-95256611D01*
X126457287Y-95256610D01*
X126504516Y-95163917D01*
X126552489Y-95113123D01*
X126620310Y-95096328D01*
X126686445Y-95118865D01*
X126725485Y-95163919D01*
X126772715Y-95256614D01*
X126893028Y-95422213D01*
X127037786Y-95566971D01*
X127192749Y-95679556D01*
X127203390Y-95687287D01*
X127319607Y-95746503D01*
X127385776Y-95780218D01*
X127385778Y-95780218D01*
X127385781Y-95780220D01*
X127490137Y-95814127D01*
X127580465Y-95843477D01*
X127681557Y-95859488D01*
X127782648Y-95875500D01*
X127782649Y-95875500D01*
X127987351Y-95875500D01*
X127987352Y-95875500D01*
X128189534Y-95843477D01*
X128384219Y-95780220D01*
X128566610Y-95687287D01*
X128659590Y-95619732D01*
X128732213Y-95566971D01*
X128732215Y-95566968D01*
X128732219Y-95566966D01*
X128876966Y-95422219D01*
X128876968Y-95422215D01*
X128876971Y-95422213D01*
X128997284Y-95256614D01*
X128997286Y-95256611D01*
X128997287Y-95256610D01*
X129044516Y-95163917D01*
X129092489Y-95113123D01*
X129160310Y-95096328D01*
X129226445Y-95118865D01*
X129265485Y-95163919D01*
X129312715Y-95256614D01*
X129433028Y-95422213D01*
X129577786Y-95566971D01*
X129732749Y-95679556D01*
X129743390Y-95687287D01*
X129859607Y-95746503D01*
X129925776Y-95780218D01*
X129925778Y-95780218D01*
X129925781Y-95780220D01*
X130030137Y-95814127D01*
X130120465Y-95843477D01*
X130221557Y-95859488D01*
X130322648Y-95875500D01*
X130322649Y-95875500D01*
X130527351Y-95875500D01*
X130527352Y-95875500D01*
X130729534Y-95843477D01*
X130924219Y-95780220D01*
X131106610Y-95687287D01*
X131199590Y-95619732D01*
X131272213Y-95566971D01*
X131272215Y-95566968D01*
X131272219Y-95566966D01*
X131416966Y-95422219D01*
X131416968Y-95422215D01*
X131416971Y-95422213D01*
X131537284Y-95256614D01*
X131537286Y-95256611D01*
X131537287Y-95256610D01*
X131584516Y-95163917D01*
X131632489Y-95113123D01*
X131700310Y-95096328D01*
X131766445Y-95118865D01*
X131805485Y-95163919D01*
X131852715Y-95256614D01*
X131973028Y-95422213D01*
X132117786Y-95566971D01*
X132272749Y-95679556D01*
X132283390Y-95687287D01*
X132399607Y-95746503D01*
X132465776Y-95780218D01*
X132465778Y-95780218D01*
X132465781Y-95780220D01*
X132570137Y-95814127D01*
X132660465Y-95843477D01*
X132761557Y-95859488D01*
X132862648Y-95875500D01*
X132862649Y-95875500D01*
X133067351Y-95875500D01*
X133067352Y-95875500D01*
X133269534Y-95843477D01*
X133464219Y-95780220D01*
X133646610Y-95687287D01*
X133739590Y-95619732D01*
X133812213Y-95566971D01*
X133812215Y-95566968D01*
X133812219Y-95566966D01*
X133956966Y-95422219D01*
X133956968Y-95422215D01*
X133956971Y-95422213D01*
X134077284Y-95256614D01*
X134077286Y-95256611D01*
X134077287Y-95256610D01*
X134124516Y-95163917D01*
X134172489Y-95113123D01*
X134240310Y-95096328D01*
X134306445Y-95118865D01*
X134345485Y-95163919D01*
X134392715Y-95256614D01*
X134513028Y-95422213D01*
X134657786Y-95566971D01*
X134812749Y-95679556D01*
X134823390Y-95687287D01*
X134939607Y-95746503D01*
X135005776Y-95780218D01*
X135005778Y-95780218D01*
X135005781Y-95780220D01*
X135110137Y-95814127D01*
X135200465Y-95843477D01*
X135301557Y-95859488D01*
X135402648Y-95875500D01*
X135402649Y-95875500D01*
X135607351Y-95875500D01*
X135607352Y-95875500D01*
X135809534Y-95843477D01*
X136004219Y-95780220D01*
X136186610Y-95687287D01*
X136279590Y-95619732D01*
X136352213Y-95566971D01*
X136352215Y-95566968D01*
X136352219Y-95566966D01*
X136496966Y-95422219D01*
X136496968Y-95422215D01*
X136496971Y-95422213D01*
X136617284Y-95256614D01*
X136617286Y-95256611D01*
X136617287Y-95256610D01*
X136664516Y-95163917D01*
X136712489Y-95113123D01*
X136780310Y-95096328D01*
X136846445Y-95118865D01*
X136885485Y-95163919D01*
X136932715Y-95256614D01*
X137053028Y-95422213D01*
X137197786Y-95566971D01*
X137352749Y-95679556D01*
X137363390Y-95687287D01*
X137479607Y-95746503D01*
X137545776Y-95780218D01*
X137545778Y-95780218D01*
X137545781Y-95780220D01*
X137650137Y-95814127D01*
X137740465Y-95843477D01*
X137841557Y-95859488D01*
X137942648Y-95875500D01*
X137942649Y-95875500D01*
X138147351Y-95875500D01*
X138147352Y-95875500D01*
X138349534Y-95843477D01*
X138544219Y-95780220D01*
X138726610Y-95687287D01*
X138819590Y-95619732D01*
X138892213Y-95566971D01*
X138892215Y-95566968D01*
X138892219Y-95566966D01*
X139036966Y-95422219D01*
X139036968Y-95422215D01*
X139036971Y-95422213D01*
X139157284Y-95256614D01*
X139157286Y-95256611D01*
X139157287Y-95256610D01*
X139204516Y-95163917D01*
X139252489Y-95113123D01*
X139320310Y-95096328D01*
X139386445Y-95118865D01*
X139425485Y-95163919D01*
X139472715Y-95256614D01*
X139593028Y-95422213D01*
X139737786Y-95566971D01*
X139892749Y-95679556D01*
X139903390Y-95687287D01*
X140019607Y-95746503D01*
X140085776Y-95780218D01*
X140085778Y-95780218D01*
X140085781Y-95780220D01*
X140190137Y-95814127D01*
X140280465Y-95843477D01*
X140381557Y-95859488D01*
X140482648Y-95875500D01*
X140482649Y-95875500D01*
X140687351Y-95875500D01*
X140687352Y-95875500D01*
X140889534Y-95843477D01*
X141084219Y-95780220D01*
X141266610Y-95687287D01*
X141359590Y-95619732D01*
X141432213Y-95566971D01*
X141432215Y-95566968D01*
X141432219Y-95566966D01*
X141576966Y-95422219D01*
X141576968Y-95422215D01*
X141576971Y-95422213D01*
X141697284Y-95256614D01*
X141697286Y-95256611D01*
X141697287Y-95256610D01*
X141744516Y-95163917D01*
X141792489Y-95113123D01*
X141860310Y-95096328D01*
X141926445Y-95118865D01*
X141965485Y-95163919D01*
X142012715Y-95256614D01*
X142133028Y-95422213D01*
X142277786Y-95566971D01*
X142432749Y-95679556D01*
X142443390Y-95687287D01*
X142559607Y-95746503D01*
X142625776Y-95780218D01*
X142625778Y-95780218D01*
X142625781Y-95780220D01*
X142730137Y-95814127D01*
X142820465Y-95843477D01*
X142921557Y-95859488D01*
X143022648Y-95875500D01*
X143022649Y-95875500D01*
X143227351Y-95875500D01*
X143227352Y-95875500D01*
X143429534Y-95843477D01*
X143624219Y-95780220D01*
X143806610Y-95687287D01*
X143899590Y-95619732D01*
X143972213Y-95566971D01*
X143972215Y-95566968D01*
X143972219Y-95566966D01*
X144116966Y-95422219D01*
X144116968Y-95422215D01*
X144116971Y-95422213D01*
X144181105Y-95333939D01*
X144237287Y-95256610D01*
X144330220Y-95074219D01*
X144393477Y-94879534D01*
X144425500Y-94677352D01*
X144425500Y-94472648D01*
X144393477Y-94270466D01*
X144392673Y-94267993D01*
X144330218Y-94075776D01*
X144237419Y-93893650D01*
X144237287Y-93893390D01*
X144229556Y-93882749D01*
X144116971Y-93727786D01*
X143972213Y-93583028D01*
X143806613Y-93462715D01*
X143806612Y-93462714D01*
X143806610Y-93462713D01*
X143749653Y-93433691D01*
X143624223Y-93369781D01*
X143429534Y-93306522D01*
X143254995Y-93278878D01*
X143227352Y-93274500D01*
X143022648Y-93274500D01*
X142998329Y-93278351D01*
X142820465Y-93306522D01*
X142625776Y-93369781D01*
X142443386Y-93462715D01*
X142277786Y-93583028D01*
X142133028Y-93727786D01*
X142012715Y-93893386D01*
X141965485Y-93986080D01*
X141917510Y-94036876D01*
X141849689Y-94053671D01*
X141783554Y-94031134D01*
X141744515Y-93986080D01*
X141697419Y-93893650D01*
X141697287Y-93893390D01*
X141689556Y-93882749D01*
X141576971Y-93727786D01*
X141432213Y-93583028D01*
X141266613Y-93462715D01*
X141266612Y-93462714D01*
X141266610Y-93462713D01*
X141209653Y-93433691D01*
X141084223Y-93369781D01*
X140889534Y-93306522D01*
X140714995Y-93278878D01*
X140687352Y-93274500D01*
X140482648Y-93274500D01*
X140458329Y-93278351D01*
X140280465Y-93306522D01*
X140085776Y-93369781D01*
X139903386Y-93462715D01*
X139737786Y-93583028D01*
X139593028Y-93727786D01*
X139472715Y-93893386D01*
X139425485Y-93986080D01*
X139377510Y-94036876D01*
X139309689Y-94053671D01*
X139243554Y-94031134D01*
X139204515Y-93986080D01*
X139157419Y-93893650D01*
X139157287Y-93893390D01*
X139149556Y-93882749D01*
X139036971Y-93727786D01*
X138892213Y-93583028D01*
X138726613Y-93462715D01*
X138726612Y-93462714D01*
X138726610Y-93462713D01*
X138669653Y-93433691D01*
X138544223Y-93369781D01*
X138349534Y-93306522D01*
X138174995Y-93278878D01*
X138147352Y-93274500D01*
X137942648Y-93274500D01*
X137918329Y-93278351D01*
X137740465Y-93306522D01*
X137545776Y-93369781D01*
X137363386Y-93462715D01*
X137197786Y-93583028D01*
X137053028Y-93727786D01*
X136932715Y-93893386D01*
X136885485Y-93986080D01*
X136837510Y-94036876D01*
X136769689Y-94053671D01*
X136703554Y-94031134D01*
X136664515Y-93986080D01*
X136617419Y-93893650D01*
X136617287Y-93893390D01*
X136609556Y-93882749D01*
X136496971Y-93727786D01*
X136352213Y-93583028D01*
X136186613Y-93462715D01*
X136186612Y-93462714D01*
X136186610Y-93462713D01*
X136129653Y-93433691D01*
X136004223Y-93369781D01*
X135809534Y-93306522D01*
X135634995Y-93278878D01*
X135607352Y-93274500D01*
X135402648Y-93274500D01*
X135378329Y-93278351D01*
X135200465Y-93306522D01*
X135005776Y-93369781D01*
X134823386Y-93462715D01*
X134657786Y-93583028D01*
X134513028Y-93727786D01*
X134392715Y-93893386D01*
X134345485Y-93986080D01*
X134297510Y-94036876D01*
X134229689Y-94053671D01*
X134163554Y-94031134D01*
X134124515Y-93986080D01*
X134077419Y-93893650D01*
X134077287Y-93893390D01*
X134069556Y-93882749D01*
X133956971Y-93727786D01*
X133812213Y-93583028D01*
X133646613Y-93462715D01*
X133646612Y-93462714D01*
X133646610Y-93462713D01*
X133589653Y-93433691D01*
X133464223Y-93369781D01*
X133269534Y-93306522D01*
X133094995Y-93278878D01*
X133067352Y-93274500D01*
X132862648Y-93274500D01*
X132838329Y-93278351D01*
X132660465Y-93306522D01*
X132465776Y-93369781D01*
X132283386Y-93462715D01*
X132117786Y-93583028D01*
X131973028Y-93727786D01*
X131852715Y-93893386D01*
X131805485Y-93986080D01*
X131757510Y-94036876D01*
X131689689Y-94053671D01*
X131623554Y-94031134D01*
X131584515Y-93986080D01*
X131537419Y-93893650D01*
X131537287Y-93893390D01*
X131529556Y-93882749D01*
X131416971Y-93727786D01*
X131272213Y-93583028D01*
X131106613Y-93462715D01*
X131106612Y-93462714D01*
X131106610Y-93462713D01*
X131049653Y-93433691D01*
X130924223Y-93369781D01*
X130729534Y-93306522D01*
X130554995Y-93278878D01*
X130527352Y-93274500D01*
X130322648Y-93274500D01*
X130298329Y-93278351D01*
X130120465Y-93306522D01*
X129925776Y-93369781D01*
X129743386Y-93462715D01*
X129577786Y-93583028D01*
X129433028Y-93727786D01*
X129312715Y-93893386D01*
X129265485Y-93986080D01*
X129217510Y-94036876D01*
X129149689Y-94053671D01*
X129083554Y-94031134D01*
X129044515Y-93986080D01*
X128997419Y-93893650D01*
X128997287Y-93893390D01*
X128989556Y-93882749D01*
X128876971Y-93727786D01*
X128732213Y-93583028D01*
X128566613Y-93462715D01*
X128566612Y-93462714D01*
X128566610Y-93462713D01*
X128509653Y-93433691D01*
X128384223Y-93369781D01*
X128189534Y-93306522D01*
X128014995Y-93278878D01*
X127987352Y-93274500D01*
X127782648Y-93274500D01*
X127758329Y-93278351D01*
X127580465Y-93306522D01*
X127385776Y-93369781D01*
X127203386Y-93462715D01*
X127037786Y-93583028D01*
X126893028Y-93727786D01*
X126772715Y-93893386D01*
X126725485Y-93986080D01*
X126677510Y-94036876D01*
X126609689Y-94053671D01*
X126543554Y-94031134D01*
X126504515Y-93986080D01*
X126457419Y-93893650D01*
X126457287Y-93893390D01*
X126449556Y-93882749D01*
X126336971Y-93727786D01*
X126192213Y-93583028D01*
X126026613Y-93462715D01*
X126026612Y-93462714D01*
X126026610Y-93462713D01*
X125969653Y-93433691D01*
X125844223Y-93369781D01*
X125649534Y-93306522D01*
X125474995Y-93278878D01*
X125447352Y-93274500D01*
X125242648Y-93274500D01*
X125218329Y-93278351D01*
X125040465Y-93306522D01*
X124845776Y-93369781D01*
X124663386Y-93462715D01*
X124497786Y-93583028D01*
X124353028Y-93727786D01*
X124232715Y-93893386D01*
X124139781Y-94075776D01*
X124076522Y-94270465D01*
X124044500Y-94472648D01*
X122585500Y-94472648D01*
X122553477Y-94270466D01*
X122552673Y-94267993D01*
X122490218Y-94075776D01*
X122397419Y-93893650D01*
X122397287Y-93893390D01*
X122389556Y-93882749D01*
X122276971Y-93727786D01*
X122132213Y-93583028D01*
X121966613Y-93462715D01*
X121966612Y-93462714D01*
X121966610Y-93462713D01*
X121909653Y-93433691D01*
X121784223Y-93369781D01*
X121589534Y-93306522D01*
X121414995Y-93278878D01*
X121387352Y-93274500D01*
X121182648Y-93274500D01*
X121158329Y-93278351D01*
X120980465Y-93306522D01*
X120785776Y-93369781D01*
X120603386Y-93462715D01*
X120437786Y-93583028D01*
X120293028Y-93727786D01*
X120172715Y-93893386D01*
X120125485Y-93986080D01*
X120077510Y-94036876D01*
X120009689Y-94053671D01*
X119943554Y-94031134D01*
X119904515Y-93986080D01*
X119857419Y-93893650D01*
X119857287Y-93893390D01*
X119849556Y-93882749D01*
X119736971Y-93727786D01*
X119592213Y-93583028D01*
X119426613Y-93462715D01*
X119426612Y-93462714D01*
X119426610Y-93462713D01*
X119369653Y-93433691D01*
X119244223Y-93369781D01*
X119049534Y-93306522D01*
X118874995Y-93278878D01*
X118847352Y-93274500D01*
X118642648Y-93274500D01*
X118618329Y-93278351D01*
X118440465Y-93306522D01*
X118245776Y-93369781D01*
X118063386Y-93462715D01*
X117897786Y-93583028D01*
X117753028Y-93727786D01*
X117632715Y-93893386D01*
X117585485Y-93986080D01*
X117537510Y-94036876D01*
X117469689Y-94053671D01*
X117403554Y-94031134D01*
X117364515Y-93986080D01*
X117317419Y-93893650D01*
X117317287Y-93893390D01*
X117309556Y-93882749D01*
X117196971Y-93727786D01*
X117052213Y-93583028D01*
X116886613Y-93462715D01*
X116886612Y-93462714D01*
X116886610Y-93462713D01*
X116829653Y-93433691D01*
X116704223Y-93369781D01*
X116509534Y-93306522D01*
X116334995Y-93278878D01*
X116307352Y-93274500D01*
X116102648Y-93274500D01*
X116078329Y-93278351D01*
X115900465Y-93306522D01*
X115705776Y-93369781D01*
X115523386Y-93462715D01*
X115357786Y-93583028D01*
X115213028Y-93727786D01*
X115092715Y-93893386D01*
X115045485Y-93986080D01*
X114997510Y-94036876D01*
X114929689Y-94053671D01*
X114863554Y-94031134D01*
X114824515Y-93986080D01*
X114777419Y-93893650D01*
X114777287Y-93893390D01*
X114769556Y-93882749D01*
X114656971Y-93727786D01*
X114512213Y-93583028D01*
X114346613Y-93462715D01*
X114346612Y-93462714D01*
X114346610Y-93462713D01*
X114289653Y-93433691D01*
X114164223Y-93369781D01*
X113969534Y-93306522D01*
X113794995Y-93278878D01*
X113767352Y-93274500D01*
X113562648Y-93274500D01*
X113538329Y-93278351D01*
X113360465Y-93306522D01*
X113165776Y-93369781D01*
X112983386Y-93462715D01*
X112817786Y-93583028D01*
X112673028Y-93727786D01*
X112552715Y-93893386D01*
X112505485Y-93986080D01*
X112457510Y-94036876D01*
X112389689Y-94053671D01*
X112323554Y-94031134D01*
X112284515Y-93986080D01*
X112237419Y-93893650D01*
X112237287Y-93893390D01*
X112229556Y-93882749D01*
X112116971Y-93727786D01*
X111972213Y-93583028D01*
X111806613Y-93462715D01*
X111806612Y-93462714D01*
X111806610Y-93462713D01*
X111749653Y-93433691D01*
X111624223Y-93369781D01*
X111429534Y-93306522D01*
X111254995Y-93278878D01*
X111227352Y-93274500D01*
X111022648Y-93274500D01*
X110998329Y-93278351D01*
X110820465Y-93306522D01*
X110625776Y-93369781D01*
X110443386Y-93462715D01*
X110277786Y-93583028D01*
X110133028Y-93727786D01*
X110012715Y-93893386D01*
X109965485Y-93986080D01*
X109917510Y-94036876D01*
X109849689Y-94053671D01*
X109783554Y-94031134D01*
X109744515Y-93986080D01*
X109697419Y-93893650D01*
X109697287Y-93893390D01*
X109689556Y-93882749D01*
X109576971Y-93727786D01*
X109432213Y-93583028D01*
X109266613Y-93462715D01*
X109266612Y-93462714D01*
X109266610Y-93462713D01*
X109209653Y-93433691D01*
X109084223Y-93369781D01*
X108889534Y-93306522D01*
X108714995Y-93278878D01*
X108687352Y-93274500D01*
X108482648Y-93274500D01*
X108458329Y-93278351D01*
X108280465Y-93306522D01*
X108085776Y-93369781D01*
X107903386Y-93462715D01*
X107737786Y-93583028D01*
X107593028Y-93727786D01*
X107472713Y-93893388D01*
X107425203Y-93986630D01*
X107377228Y-94037426D01*
X107309407Y-94054220D01*
X107243272Y-94031682D01*
X107204234Y-93986628D01*
X107156861Y-93893652D01*
X107036582Y-93728105D01*
X107036582Y-93728104D01*
X106891895Y-93583417D01*
X106726349Y-93463140D01*
X106544029Y-93370244D01*
X106349413Y-93307009D01*
X106295000Y-93298390D01*
X106295000Y-94141988D01*
X106237993Y-94109075D01*
X106110826Y-94075000D01*
X105979174Y-94075000D01*
X105852007Y-94109075D01*
X105795000Y-94141988D01*
X105795000Y-93298390D01*
X105740586Y-93307009D01*
X105545970Y-93370244D01*
X105363650Y-93463140D01*
X105198105Y-93583417D01*
X105198104Y-93583417D01*
X105053417Y-93728104D01*
X105053417Y-93728105D01*
X104933140Y-93893650D01*
X104885765Y-93986629D01*
X104837790Y-94037425D01*
X104769969Y-94054220D01*
X104703834Y-94031682D01*
X104664795Y-93986629D01*
X104617419Y-93893650D01*
X104617287Y-93893390D01*
X104609556Y-93882749D01*
X104496971Y-93727786D01*
X104352213Y-93583028D01*
X104186613Y-93462715D01*
X104186612Y-93462714D01*
X104186610Y-93462713D01*
X104129653Y-93433691D01*
X104004223Y-93369781D01*
X103809534Y-93306522D01*
X103634995Y-93278878D01*
X103607352Y-93274500D01*
X103402648Y-93274500D01*
X103378329Y-93278351D01*
X103200465Y-93306522D01*
X103005776Y-93369781D01*
X102823386Y-93462715D01*
X102657786Y-93583028D01*
X102513028Y-93727786D01*
X102392715Y-93893386D01*
X102345485Y-93986080D01*
X102297510Y-94036876D01*
X102229689Y-94053671D01*
X102163554Y-94031134D01*
X102124515Y-93986080D01*
X102077419Y-93893650D01*
X102077287Y-93893390D01*
X102069556Y-93882749D01*
X101956971Y-93727786D01*
X101812213Y-93583028D01*
X101646613Y-93462715D01*
X101646612Y-93462714D01*
X101646610Y-93462713D01*
X101589653Y-93433691D01*
X101464223Y-93369781D01*
X101269534Y-93306522D01*
X101094995Y-93278878D01*
X101067352Y-93274500D01*
X100862648Y-93274500D01*
X100838329Y-93278351D01*
X100660465Y-93306522D01*
X100465776Y-93369781D01*
X100283386Y-93462715D01*
X100117786Y-93583028D01*
X99973028Y-93727786D01*
X99852715Y-93893386D01*
X99805485Y-93986080D01*
X99757510Y-94036876D01*
X99689689Y-94053671D01*
X99623554Y-94031134D01*
X99584515Y-93986080D01*
X99537419Y-93893650D01*
X99537287Y-93893390D01*
X99529556Y-93882749D01*
X99416971Y-93727786D01*
X99272213Y-93583028D01*
X99106613Y-93462715D01*
X99106612Y-93462714D01*
X99106610Y-93462713D01*
X99049653Y-93433691D01*
X98924223Y-93369781D01*
X98729534Y-93306522D01*
X98554995Y-93278878D01*
X98527352Y-93274500D01*
X98322648Y-93274500D01*
X98298329Y-93278351D01*
X98120465Y-93306522D01*
X97925776Y-93369781D01*
X97743386Y-93462715D01*
X97577786Y-93583028D01*
X97433028Y-93727786D01*
X97312715Y-93893386D01*
X97219781Y-94075776D01*
X97156522Y-94270465D01*
X97124500Y-94472648D01*
X97124500Y-94677351D01*
X97156522Y-94879534D01*
X97219781Y-95074223D01*
X97312715Y-95256613D01*
X97433028Y-95422213D01*
X97577786Y-95566971D01*
X97732749Y-95679556D01*
X97743390Y-95687287D01*
X97859607Y-95746503D01*
X97925776Y-95780218D01*
X97925778Y-95780218D01*
X97925781Y-95780220D01*
X98030137Y-95814127D01*
X98120465Y-95843477D01*
X98221557Y-95859488D01*
X98322648Y-95875500D01*
X98322649Y-95875500D01*
X98527351Y-95875500D01*
X98527352Y-95875500D01*
X98729534Y-95843477D01*
X98924219Y-95780220D01*
X99106610Y-95687287D01*
X99199590Y-95619732D01*
X99272213Y-95566971D01*
X99272215Y-95566968D01*
X99272219Y-95566966D01*
X99416966Y-95422219D01*
X99416968Y-95422215D01*
X99416971Y-95422213D01*
X99537284Y-95256614D01*
X99537286Y-95256611D01*
X99537287Y-95256610D01*
X99584516Y-95163917D01*
X99632489Y-95113123D01*
X99700310Y-95096328D01*
X99766445Y-95118865D01*
X99805485Y-95163919D01*
X99852715Y-95256614D01*
X99973028Y-95422213D01*
X100117786Y-95566971D01*
X100272749Y-95679556D01*
X100283390Y-95687287D01*
X100399607Y-95746503D01*
X100465776Y-95780218D01*
X100465778Y-95780218D01*
X100465781Y-95780220D01*
X100570137Y-95814127D01*
X100660465Y-95843477D01*
X100761557Y-95859488D01*
X100862648Y-95875500D01*
X100862649Y-95875500D01*
X101067351Y-95875500D01*
X101067352Y-95875500D01*
X101269534Y-95843477D01*
X101464219Y-95780220D01*
X101646610Y-95687287D01*
X101739590Y-95619732D01*
X101812213Y-95566971D01*
X101812215Y-95566968D01*
X101812219Y-95566966D01*
X101956966Y-95422219D01*
X101956968Y-95422215D01*
X101956971Y-95422213D01*
X102077284Y-95256614D01*
X102077286Y-95256611D01*
X102077287Y-95256610D01*
X102124516Y-95163917D01*
X102172489Y-95113123D01*
X102240310Y-95096328D01*
X102306445Y-95118865D01*
X102345485Y-95163919D01*
X102392715Y-95256614D01*
X102513028Y-95422213D01*
X102657786Y-95566971D01*
X102812749Y-95679556D01*
X102823390Y-95687287D01*
X102939607Y-95746503D01*
X103005776Y-95780218D01*
X103005778Y-95780218D01*
X103005781Y-95780220D01*
X103110137Y-95814127D01*
X103200465Y-95843477D01*
X103301557Y-95859488D01*
X103402648Y-95875500D01*
X103402649Y-95875500D01*
X103607351Y-95875500D01*
X103607352Y-95875500D01*
X103809534Y-95843477D01*
X104004219Y-95780220D01*
X104186610Y-95687287D01*
X104279590Y-95619732D01*
X104352213Y-95566971D01*
X104352215Y-95566968D01*
X104352219Y-95566966D01*
X104496966Y-95422219D01*
X104496968Y-95422215D01*
X104496971Y-95422213D01*
X104617284Y-95256614D01*
X104617286Y-95256611D01*
X104617287Y-95256610D01*
X104664795Y-95163369D01*
X104712770Y-95112574D01*
X104780591Y-95095779D01*
X104846725Y-95118316D01*
X104885765Y-95163370D01*
X104933140Y-95256349D01*
X105053417Y-95421894D01*
X105053417Y-95421895D01*
X105198104Y-95566582D01*
X105363650Y-95686859D01*
X105545968Y-95779754D01*
X105740578Y-95842988D01*
X105795000Y-95851607D01*
X105795000Y-95008012D01*
X105852007Y-95040925D01*
X105979174Y-95075000D01*
X106110826Y-95075000D01*
X106237993Y-95040925D01*
X106295000Y-95008012D01*
X106295000Y-95851606D01*
X106349421Y-95842988D01*
X106544031Y-95779754D01*
X106726349Y-95686859D01*
X106891894Y-95566582D01*
X106891895Y-95566582D01*
X107036582Y-95421895D01*
X107036582Y-95421894D01*
X107156861Y-95256347D01*
X107204234Y-95163371D01*
X107252208Y-95112575D01*
X107320028Y-95095779D01*
X107386164Y-95118316D01*
X107425203Y-95163369D01*
X107472713Y-95256611D01*
X107593028Y-95422213D01*
X107737786Y-95566971D01*
X107892749Y-95679556D01*
X107903390Y-95687287D01*
X108019607Y-95746503D01*
X108085776Y-95780218D01*
X108085778Y-95780218D01*
X108085781Y-95780220D01*
X108190137Y-95814127D01*
X108280465Y-95843477D01*
X108381557Y-95859488D01*
X108482648Y-95875500D01*
X108482649Y-95875500D01*
X108675903Y-95875500D01*
X108697148Y-95881738D01*
X108719237Y-95883318D01*
X108730020Y-95891390D01*
X108742942Y-95895185D01*
X108757441Y-95911918D01*
X108775170Y-95925190D01*
X108779877Y-95937810D01*
X108788697Y-95947989D01*
X108791848Y-95969906D01*
X108799587Y-95990654D01*
X108796724Y-96003814D01*
X108798641Y-96017147D01*
X108789441Y-96037290D01*
X108784735Y-96058927D01*
X108771466Y-96076652D01*
X108769616Y-96080703D01*
X108763584Y-96087181D01*
X108737584Y-96113181D01*
X108676261Y-96146666D01*
X108649903Y-96149500D01*
X103836670Y-96149500D01*
X103836654Y-96149499D01*
X103829058Y-96149499D01*
X103670943Y-96149499D01*
X103594579Y-96169961D01*
X103518214Y-96190423D01*
X103518209Y-96190426D01*
X103381290Y-96269475D01*
X103381282Y-96269481D01*
X100537584Y-99113181D01*
X100476261Y-99146666D01*
X100449903Y-99149500D01*
X82336670Y-99149500D01*
X82336654Y-99149499D01*
X82329058Y-99149499D01*
X82170943Y-99149499D01*
X82094579Y-99169961D01*
X82018214Y-99190423D01*
X82018209Y-99190426D01*
X81881290Y-99269475D01*
X81881282Y-99269481D01*
X80769481Y-100381282D01*
X80769479Y-100381285D01*
X80719361Y-100468094D01*
X80719359Y-100468096D01*
X80690425Y-100518209D01*
X80690424Y-100518210D01*
X80674544Y-100577472D01*
X80649499Y-100670943D01*
X80649499Y-100829057D01*
X80649499Y-100829059D01*
X80649500Y-100839053D01*
X80649500Y-104013330D01*
X80649499Y-104013348D01*
X80649499Y-104179054D01*
X80649498Y-104179054D01*
X67500500Y-104179054D01*
X67500500Y-26624500D01*
X67520185Y-26557461D01*
X67572989Y-26511706D01*
X67624500Y-26500500D01*
X154375500Y-26500500D01*
X154442539Y-26520185D01*
G37*
%TD.AperFunction*%
%TD*%
M02*
