%TF.GenerationSoftware,KiCad,Pcbnew,10.0.4*%
%TF.CreationDate,2026-09-01T20:45:46+03:00*%
%TF.ProjectId,ultrasonic-radar-detector,756c7472-6173-46f6-9e69-632d72616461,rev?*%
%TF.SameCoordinates,Original*%
%TF.FileFunction,Soldermask,Top*%
%TF.FilePolarity,Negative*%
%FSLAX46Y46*%
G04 Gerber Fmt 4.6, Leading zero omitted, Abs format (unit mm)*
G04 Created by KiCad (PCBNEW 10.0.4) date 2026-09-01 20:45:46*
%MOMM*%
%LPD*%
G01*
G04 APERTURE LIST*
G04 Aperture macros list*
%AMRoundRect*
0 Rectangle with rounded corners*
0 $1 Rounding radius*
0 $2 $3 $4 $5 $6 $7 $8 $9 X,Y pos of 4 corners*
0 Add a 4 corners polygon primitive as box body*
4,1,4,$2,$3,$4,$5,$6,$7,$8,$9,$2,$3,0*
0 Add four circle primitives for the rounded corners*
1,1,$1+$1,$2,$3*
1,1,$1+$1,$4,$5*
1,1,$1+$1,$6,$7*
1,1,$1+$1,$8,$9*
0 Add four rect primitives between the rounded corners*
20,1,$1+$1,$2,$3,$4,$5,0*
20,1,$1+$1,$4,$5,$6,$7,0*
20,1,$1+$1,$6,$7,$8,$9,0*
20,1,$1+$1,$8,$9,$2,$3,0*%
G04 Aperture macros list end*
%ADD10R,1.700000X1.700000*%
%ADD11C,1.700000*%
%ADD12R,2.000000X2.000000*%
%ADD13C,2.000000*%
%ADD14C,1.600000*%
%ADD15R,1.600000X1.600000*%
%ADD16O,1.600000X1.600000*%
%ADD17C,0.650000*%
%ADD18O,0.950000X0.650000*%
%ADD19RoundRect,0.075000X0.075000X0.275000X-0.075000X0.275000X-0.075000X-0.275000X0.075000X-0.275000X0*%
%ADD20O,0.800000X1.400000*%
G04 APERTURE END LIST*
D10*
%TO.C,U1*%
X105060000Y-111500000D03*
D11*
X102520000Y-111500000D03*
X99980000Y-111500000D03*
X97440000Y-111500000D03*
%TD*%
D10*
%TO.C,J1*%
X125000000Y-107000000D03*
D11*
X122460000Y-107000000D03*
X119920000Y-107000000D03*
%TD*%
D12*
%TO.C,Buzzer*%
X83400000Y-106250000D03*
D13*
X91000000Y-106250000D03*
%TD*%
D14*
%TO.C,5.1k\u03A9*%
X123500000Y-36000000D03*
X108260000Y-36000000D03*
%TD*%
D15*
%TO.C,A1*%
X107565000Y-46315000D03*
D16*
X110105000Y-46315000D03*
X112645000Y-46315000D03*
X115185000Y-46315000D03*
X117725000Y-46315000D03*
X120265000Y-46315000D03*
X122805000Y-46315000D03*
X125345000Y-46315000D03*
X130425000Y-46315000D03*
X132965000Y-46315000D03*
X135505000Y-46315000D03*
X138045000Y-46315000D03*
X140585000Y-46315000D03*
X143125000Y-46315000D03*
X143125000Y-94575000D03*
X140585000Y-94575000D03*
X138045000Y-94575000D03*
X135505000Y-94575000D03*
X132965000Y-94575000D03*
X130425000Y-94575000D03*
X127885000Y-94575000D03*
X125345000Y-94575000D03*
X121285000Y-94575000D03*
X118745000Y-94575000D03*
X116205000Y-94575000D03*
X113665000Y-94575000D03*
X111125000Y-94575000D03*
X108585000Y-94575000D03*
X106045000Y-94575000D03*
X103505000Y-94575000D03*
X100965000Y-94575000D03*
X98425000Y-94575000D03*
%TD*%
D17*
%TO.C,P1*%
X143100000Y-40360000D03*
D18*
X135900000Y-40360000D03*
D19*
X142250000Y-41020000D03*
X141750000Y-41020000D03*
X141250000Y-41020000D03*
X140750000Y-41020000D03*
X140250000Y-41020000D03*
X139750000Y-41020000D03*
X139250000Y-41020000D03*
X138750000Y-41020000D03*
X138250000Y-41020000D03*
X137750000Y-41020000D03*
X137250000Y-41020000D03*
X136750000Y-41020000D03*
X137000000Y-39320000D03*
X137500000Y-39320000D03*
X138000000Y-39320000D03*
X138500000Y-39320000D03*
X139000000Y-39320000D03*
X139500000Y-39320000D03*
X140000000Y-39320000D03*
X140500000Y-39320000D03*
X141000000Y-39320000D03*
X141500000Y-39320000D03*
X142000000Y-39320000D03*
X142500000Y-39320000D03*
D20*
X143990000Y-33160000D03*
X143630000Y-39110000D03*
X135370000Y-39110000D03*
X135010000Y-33160000D03*
%TD*%
M02*
