%TF.GenerationSoftware,KiCad,Pcbnew,10.0.4*%
%TF.CreationDate,2026-09-01T20:45:45+03:00*%
%TF.ProjectId,ultrasonic-radar-detector,756c7472-6173-46f6-9e69-632d72616461,rev?*%
%TF.SameCoordinates,Original*%
%TF.FileFunction,Copper,L1,Top*%
%TF.FilePolarity,Positive*%
%FSLAX46Y46*%
G04 Gerber Fmt 4.6, Leading zero omitted, Abs format (unit mm)*
G04 Created by KiCad (PCBNEW 10.0.4) date 2026-09-01 20:45:45*
%MOMM*%
%LPD*%
G01*
G04 APERTURE LIST*
G04 Aperture macros list*
%AMRoundRect*
0 Rectangle with rounded corners*
0 $1 Rounding radius*
0 $2 $3 $4 $5 $6 $7 $8 $9 X,Y pos of 4 corners*
0 Add a 4 corners polygon primitive as box body*
4,1,4,$2,$3,$4,$5,$6,$7,$8,$9,$2,$3,0*
0 Add four circle primitives for the rounded corners*
1,1,$1+$1,$2,$3*
1,1,$1+$1,$4,$5*
1,1,$1+$1,$6,$7*
1,1,$1+$1,$8,$9*
0 Add four rect primitives between the rounded corners*
20,1,$1+$1,$2,$3,$4,$5,0*
20,1,$1+$1,$4,$5,$6,$7,0*
20,1,$1+$1,$6,$7,$8,$9,0*
20,1,$1+$1,$8,$9,$2,$3,0*%
G04 Aperture macros list end*
%TA.AperFunction,ComponentPad*%
%ADD10R,1.700000X1.700000*%
%TD*%
%TA.AperFunction,ComponentPad*%
%ADD11C,1.700000*%
%TD*%
%TA.AperFunction,ComponentPad*%
%ADD12R,2.000000X2.000000*%
%TD*%
%TA.AperFunction,ComponentPad*%
%ADD13C,2.000000*%
%TD*%
%TA.AperFunction,ComponentPad*%
%ADD14C,1.600000*%
%TD*%
%TA.AperFunction,ComponentPad*%
%ADD15R,1.600000X1.600000*%
%TD*%
%TA.AperFunction,ComponentPad*%
%ADD16O,1.600000X1.600000*%
%TD*%
%TA.AperFunction,SMDPad,CuDef*%
%ADD17RoundRect,0.075000X0.075000X0.275000X-0.075000X0.275000X-0.075000X-0.275000X0.075000X-0.275000X0*%
%TD*%
%TA.AperFunction,ComponentPad*%
%ADD18O,0.800000X1.400000*%
%TD*%
%TA.AperFunction,ViaPad*%
%ADD19C,0.600000*%
%TD*%
%TA.AperFunction,Conductor*%
%ADD20C,0.200000*%
%TD*%
G04 APERTURE END LIST*
D10*
%TO.P,U1,1,VCC_1*%
%TO.N,5V*%
X105060000Y-111500000D03*
D11*
%TO.P,U1,2,TRIG_2*%
%TO.N,D9*%
X102520000Y-111500000D03*
%TO.P,U1,3,ECHO_3*%
%TO.N,D10*%
X99980000Y-111500000D03*
%TO.P,U1,4,GND_4*%
%TO.N,GND*%
X97440000Y-111500000D03*
%TD*%
D10*
%TO.P,J1,1,PWM_1*%
%TO.N,D11*%
X125000000Y-107000000D03*
D11*
%TO.P,J1,2,+_2*%
%TO.N,5V*%
X122460000Y-107000000D03*
%TO.P,J1,3,-_3*%
%TO.N,GND*%
X119920000Y-107000000D03*
%TD*%
D12*
%TO.P,Buzzer,1,+_1*%
%TO.N,D12*%
X83400000Y-106250000D03*
D13*
%TO.P,Buzzer,2,-_2*%
%TO.N,GND*%
X91000000Y-106250000D03*
%TD*%
D14*
%TO.P,5.1k\u03A9,1*%
%TO.N,Net-(P1-CC)*%
X123500000Y-36000000D03*
%TO.P,5.1k\u03A9,2*%
%TO.N,GND*%
X108260000Y-36000000D03*
%TD*%
D15*
%TO.P,A1,1,NC_1*%
%TO.N,unconnected-(A1-NC-Pad1)*%
X107565000Y-46315000D03*
D16*
%TO.P,A1,2,IOREF_2*%
%TO.N,unconnected-(A1-IOREF-Pad2)*%
X110105000Y-46315000D03*
%TO.P,A1,3,~{RESET}_3*%
%TO.N,unconnected-(A1-~{RESET}-Pad3)*%
X112645000Y-46315000D03*
%TO.P,A1,4,3V3_4*%
%TO.N,unconnected-(A1-3V3-Pad4)*%
X115185000Y-46315000D03*
%TO.P,A1,5,+5V_5*%
%TO.N,5V*%
X117725000Y-46315000D03*
%TO.P,A1,6,GND_6*%
%TO.N,GND*%
X120265000Y-46315000D03*
%TO.P,A1,7,GND_7*%
X122805000Y-46315000D03*
%TO.P,A1,8,VIN_8*%
%TO.N,VIN*%
X125345000Y-46315000D03*
%TO.P,A1,9,A0_9*%
%TO.N,unconnected-(A1-A0-Pad9)*%
X130425000Y-46315000D03*
%TO.P,A1,10,A1_10*%
%TO.N,unconnected-(A1-A1-Pad10)*%
X132965000Y-46315000D03*
%TO.P,A1,11,A2_11*%
%TO.N,unconnected-(A1-A2-Pad11)*%
X135505000Y-46315000D03*
%TO.P,A1,12,A3_12*%
%TO.N,unconnected-(A1-A3-Pad12)*%
X138045000Y-46315000D03*
%TO.P,A1,13,SDA/A4_13*%
%TO.N,unconnected-(A1-SDA{slash}A4-Pad13)*%
X140585000Y-46315000D03*
%TO.P,A1,14,SCL/A5_14*%
%TO.N,unconnected-(A1-SCL{slash}A5-Pad14)*%
X143125000Y-46315000D03*
%TO.P,A1,15,D0/RX_15*%
%TO.N,unconnected-(A1-D0{slash}RX-Pad15)*%
X143125000Y-94575000D03*
%TO.P,A1,16,D1/TX_16*%
%TO.N,unconnected-(A1-D1{slash}TX-Pad16)*%
X140585000Y-94575000D03*
%TO.P,A1,17,D2_17*%
%TO.N,unconnected-(A1-D2-Pad17)*%
X138045000Y-94575000D03*
%TO.P,A1,18,D3_18*%
%TO.N,unconnected-(A1-D3-Pad18)*%
X135505000Y-94575000D03*
%TO.P,A1,19,D4_19*%
%TO.N,unconnected-(A1-D4-Pad19)*%
X132965000Y-94575000D03*
%TO.P,A1,20,D5_20*%
%TO.N,unconnected-(A1-D5-Pad20)*%
X130425000Y-94575000D03*
%TO.P,A1,21,D6_21*%
%TO.N,unconnected-(A1-D6-Pad21)*%
X127885000Y-94575000D03*
%TO.P,A1,22,D7_22*%
%TO.N,unconnected-(A1-D7-Pad22)*%
X125345000Y-94575000D03*
%TO.P,A1,23,D8_23*%
%TO.N,unconnected-(A1-D8-Pad23)*%
X121285000Y-94575000D03*
%TO.P,A1,24,D9_24*%
%TO.N,D9*%
X118745000Y-94575000D03*
%TO.P,A1,25,D10_25*%
%TO.N,D10*%
X116205000Y-94575000D03*
%TO.P,A1,26,D11_26*%
%TO.N,D11*%
X113665000Y-94575000D03*
%TO.P,A1,27,D12_27*%
%TO.N,D12*%
X111125000Y-94575000D03*
%TO.P,A1,28,D13_28*%
%TO.N,unconnected-(A1-D13-Pad28)*%
X108585000Y-94575000D03*
%TO.P,A1,29,GND_29*%
%TO.N,GND*%
X106045000Y-94575000D03*
%TO.P,A1,30,AREF_30*%
%TO.N,unconnected-(A1-AREF-Pad30)*%
X103505000Y-94575000D03*
%TO.P,A1,31,SDA/A4_31*%
%TO.N,unconnected-(A1-SDA{slash}A4-Pad31)*%
X100965000Y-94575000D03*
%TO.P,A1,32,SCL/A5_32*%
%TO.N,unconnected-(A1-SCL{slash}A5-Pad32)*%
X98425000Y-94575000D03*
%TD*%
D17*
%TO.P,P1,A1,GND_A1*%
%TO.N,GND*%
X142250000Y-41020000D03*
%TO.P,P1,A2*%
%TO.N,N/C*%
X141750000Y-41020000D03*
%TO.P,P1,A3*%
X141250000Y-41020000D03*
%TO.P,P1,A4,VBUS_A4*%
%TO.N,VIN*%
X140750000Y-41020000D03*
%TO.P,P1,A5,CC_A5*%
%TO.N,Net-(P1-CC)*%
X140250000Y-41020000D03*
%TO.P,P1,A6,D+_A6*%
%TO.N,unconnected-(P1-D+-PadA6)*%
X139750000Y-41020000D03*
%TO.P,P1,A7,D-_A7*%
%TO.N,unconnected-(P1-D--PadA7)*%
X139250000Y-41020000D03*
%TO.P,P1,A8*%
%TO.N,N/C*%
X138750000Y-41020000D03*
%TO.P,P1,A9,VBUS_A9*%
%TO.N,VIN*%
X138250000Y-41020000D03*
%TO.P,P1,A10*%
%TO.N,N/C*%
X137750000Y-41020000D03*
%TO.P,P1,A11*%
X137250000Y-41020000D03*
%TO.P,P1,A12,GND_A12*%
%TO.N,GND*%
X136750000Y-41020000D03*
%TO.P,P1,B1,GND_B1*%
X137000000Y-39320000D03*
%TO.P,P1,B2*%
%TO.N,N/C*%
X137500000Y-39320000D03*
%TO.P,P1,B3*%
X138000000Y-39320000D03*
%TO.P,P1,B4,VBUS_B4*%
%TO.N,VIN*%
X138500000Y-39320000D03*
%TO.P,P1,B5,VCONN_B5*%
%TO.N,unconnected-(P1-VCONN-PadB5)*%
X139000000Y-39320000D03*
%TO.P,P1,B6*%
%TO.N,N/C*%
X139500000Y-39320000D03*
%TO.P,P1,B7*%
X140000000Y-39320000D03*
%TO.P,P1,B8*%
X140500000Y-39320000D03*
%TO.P,P1,B9,VBUS_B9*%
%TO.N,VIN*%
X141000000Y-39320000D03*
%TO.P,P1,B10*%
%TO.N,N/C*%
X141500000Y-39320000D03*
%TO.P,P1,B11*%
X142000000Y-39320000D03*
%TO.P,P1,B12,GND_B12*%
%TO.N,GND*%
X142500000Y-39320000D03*
D18*
%TO.P,P1,SH,SHIELD_SH*%
X143990000Y-33160000D03*
X143630000Y-39110000D03*
X135370000Y-39110000D03*
X135010000Y-33160000D03*
%TD*%
D19*
%TO.N,GND*%
X97750000Y-114450000D03*
X124000000Y-104500000D03*
%TO.N,VIN*%
X138250000Y-41750000D03*
%TO.N,Net-(P1-CC)*%
X140250000Y-41684352D03*
%TD*%
%TO.N,GND*%
D20*
X97700000Y-114450000D02*
X97750000Y-114450000D01*
X97440000Y-114190000D02*
X97700000Y-114450000D01*
X97440000Y-111500000D02*
X97440000Y-114190000D01*
X122420000Y-104500000D02*
X124000000Y-104500000D01*
X119920000Y-107000000D02*
X122420000Y-104500000D01*
%TO.N,VIN*%
X138250000Y-41020000D02*
X138250000Y-40250000D01*
X138250000Y-40250000D02*
X140750000Y-40250000D01*
X140750000Y-40250000D02*
X140750000Y-39952410D01*
X138250000Y-39952410D02*
X138500000Y-39702410D01*
X141000000Y-39702410D02*
X141000000Y-39320000D01*
X140750000Y-41020000D02*
X140750000Y-40250000D01*
X138500000Y-39702410D02*
X138500000Y-39320000D01*
X138250000Y-41020000D02*
X138250000Y-41750000D01*
X140750000Y-39952410D02*
X141000000Y-39702410D01*
X138250000Y-40250000D02*
X138250000Y-39952410D01*
%TO.N,Net-(P1-CC)*%
X140250000Y-41020000D02*
X140250000Y-41684352D01*
%TD*%
M02*
